<svg width="33" height="32" viewBox="0 0 33 32" fill="none" xmlns="http://www.w3.org/2000/svg">
<path d="M30.8999 16.2643C30.8999 15.0831 30.8019 14.2211 30.5896 13.3272H16.7864V18.6587H24.8885C24.7253 19.9837 23.8432 21.979 21.8829 23.3198L21.8554 23.4983L26.2197 26.8022L26.5221 26.8317C29.299 24.3255 30.8999 20.6381 30.8999 16.2643Z" fill="#4285F4"/>
<path d="M16.7865 30.3118C20.7559 30.3118 24.0882 29.0348 26.5222 26.832L21.883 23.3201C20.6416 24.1661 18.9753 24.7567 16.7865 24.7567C12.8987 24.7567 9.59902 22.2506 8.42278 18.7867L8.25036 18.801L3.71227 22.233L3.65292 22.3942C6.07051 27.0873 11.0364 30.3118 16.7865 30.3118Z" fill="#34A853"/>
<path d="M8.4226 18.7864C8.11224 17.8925 7.93262 16.9347 7.93262 15.9451C7.93262 14.9553 8.11224 13.9976 8.40627 13.1037L8.39805 12.9133L3.8031 9.42619L3.65276 9.49607C2.65636 11.4435 2.08463 13.6305 2.08463 15.9451C2.08463 18.2597 2.65636 20.4465 3.65276 22.3939L8.4226 18.7864Z" fill="#FBBC05"/>
<path d="M16.7864 7.1337C19.547 7.1337 21.4092 8.29897 22.471 9.27277L26.6201 5.31399C24.0719 2.99941 20.7558 1.57872 16.7864 1.57872C11.0364 1.57872 6.0705 4.80316 3.65292 9.49616L8.40643 13.1038C9.599 9.63988 12.8987 7.1337 16.7864 7.1337Z" fill="#EB4335"/>
</svg>
