<svg width="32" height="32" viewBox="0 0 32 32" fill="none" xmlns="http://www.w3.org/2000/svg">
<path d="M20 11.5H19V14H20V11.5Z" fill="white"/>
<path d="M22 11.5H21V14H22V11.5Z" fill="white"/>
<path d="M20 15H19V16H20V15Z" fill="white"/>
<path d="M22 15H21V16H22V15Z" fill="white"/>
<path d="M16.5 17H15.5V18H16.5V17Z" fill="white"/>
<path d="M14 27H13V28H14V27Z" fill="white"/>
<path d="M22 17H21V18H22V17Z" fill="white"/>
<path d="M20 19H19V20H20V19Z" fill="white"/>
<path d="M22 19H21V20H22V19Z" fill="white"/>
<path d="M1 1H2.5V0H0.5C0.224 0 0 0.224 0 0.5V2.5H1V1Z" fill="white"/>
<path d="M31.5 0H29.5V1H31V2.5H32V0.5C32 0.224 31.776 0 31.5 0Z" fill="white"/>
<path d="M1 29.5H0V31.5C0 31.776 0.224 32 0.5 32H2.5V31H1V29.5Z" fill="white"/>
<path d="M31 31H29.5V32H31.5C31.776 32 32 31.776 32 31.5V29.5H31V31Z" fill="white"/>
<path d="M2 2.5V8.5C2 8.776 2.224 9 2.5 9H8.5C8.776 9 9 8.776 9 8.5V2.5C9 2.224 8.776 2 8.5 2H2.5C2.224 2 2 2.224 2 2.5ZM3 3H8V8H3V3Z" fill="white"/>
<path d="M6.5 4H4.5C4.224 4 4 4.224 4 4.5V6.5C4 6.776 4.224 7 4.5 7H6.5C6.776 7 7 6.776 7 6.5V4.5C7 4.224 6.776 4 6.5 4ZM6 6H5V5H6V6Z" fill="white"/>
<path d="M23.5 9H29.5C29.776 9 30 8.776 30 8.5V2.5C30 2.224 29.776 2 29.5 2H23.5C23.224 2 23 2.224 23 2.5V8.5C23 8.776 23.224 9 23.5 9ZM24 3H29V8H24V3Z" fill="white"/>
<path d="M27.5 4H25.5C25.224 4 25 4.224 25 4.5V6.5C25 6.776 25.224 7 25.5 7H27.5C27.776 7 28 6.776 28 6.5V4.5C28 4.224 27.776 4 27.5 4ZM27 6H26V5H27V6Z" fill="white"/>
<path d="M8.5 23H2.5C2.224 23 2 23.224 2 23.5V29.5C2 29.776 2.224 30 2.5 30H8.5C8.776 30 9 29.776 9 29.5V23.5C9 23.224 8.776 23 8.5 23ZM8 29H3V24H8V29Z" fill="white"/>
<path d="M4.5 28H6.5C6.776 28 7 27.776 7 27.5V25.5C7 25.224 6.776 25 6.5 25H4.5C4.224 25 4 25.224 4 25.5V27.5C4 27.776 4.224 28 4.5 28ZM5 26H6V27H5V26Z" fill="white"/>
<path d="M22 9.5H18.5V3.5H17.5V10C17.5 10.276 17.724 10.5 18 10.5H22V9.5Z" fill="white"/>
<path d="M14.5 6H11V7H14.5V6Z" fill="white"/>
<path d="M16.5 4H13V5H16.5V4Z" fill="white"/>
<path d="M3 9.5H2V14H3V9.5Z" fill="white"/>
<path d="M9 12.5H4V13.5H8.5V15.5H9.5V13C9.5 12.724 9.276 12.5 9 12.5Z" fill="white"/>
<path d="M5.5 10H4.5V11H5.5V10Z" fill="white"/>
<path d="M11.5 9H10.5V13H11.5V9Z" fill="white"/>
<path d="M15 14H10.5V15H15V14Z" fill="white"/>
<path d="M30.5 14.5H29.5V19.5H28V20.5H30C30.276 20.5 30.5 20.276 30.5 20V14.5Z" fill="white"/>
<path d="M14 9H13V10H14V9Z" fill="white"/>
<path d="M3 16.5H2V20.5H3V16.5Z" fill="white"/>
<path d="M6.5 21H2V22H6.5V21Z" fill="white"/>
<path d="M25 14H26V12C26 11.724 25.776 11.5 25.5 11.5H23V12.5H25V14Z" fill="white"/>
<path d="M5.5 16.5H4.5V17.5H5.5V16.5Z" fill="white"/>
<path d="M11 16H10V20H11V16Z" fill="white"/>
<path d="M14.5 21H10V22H14.5V21Z" fill="white"/>
<path d="M8.5 19H4V20H8.5V19Z" fill="white"/>
<path d="M11.5 26H10.5V28H11.5V26Z" fill="white"/>
<path d="M14.5 24H10V25H14.5V24Z" fill="white"/>
<path d="M18 22V19.5C18 19.224 17.776 19 17.5 19H12.5V20H17V22H18Z" fill="white"/>
<path d="M14 16H13V17H14V16Z" fill="white"/>
<path d="M8.5 17H7.5V18H8.5V17Z" fill="white"/>
<path d="M30.5 26.5H29.5V30H30.5V26.5Z" fill="white"/>
<path d="M28.5 29H27V30H28.5V29Z" fill="white"/>
<path d="M28 26H27V28H28V26Z" fill="white"/>
<path d="M30.5 22C30.5 21.724 30.276 21.5 30 21.5H24.5V22.5H29.5V25.5H30.5V22Z" fill="white"/>
<path d="M24 28V25.5C24 25.224 23.776 25 23.5 25H18V26H23V28H24Z" fill="white"/>
<path d="M28.5 23.5H25V24.5H28.5V23.5Z" fill="white"/>
<path d="M13.5 29H10V30H13.5V29Z" fill="white"/>
<path d="M16 25.5H15V30H16V25.5Z" fill="white"/>
<path d="M18 23H16V24H18V23Z" fill="white"/>
<path d="M23.5 18H26V17H24V14H23V17.5C23 17.776 23.224 18 23.5 18Z" fill="white"/>
<path d="M27.5 15H25V16H27.5V15Z" fill="white"/>
<path d="M28.5 10H27V11H28.5V10Z" fill="white"/>
<path d="M30.5 10H29.5V12.5H30.5V10Z" fill="white"/>
<path d="M28 12.5H27V13.5H28V12.5Z" fill="white"/>
<path d="M19.5 8.5H21.5C21.776 8.5 22 8.276 22 8V1.5H21V7.5H19.5V8.5Z" fill="white"/>
<path d="M12 2.5H19.5V1.5H11.5C11.224 1.5 11 1.724 11 2V4.5H12V2.5Z" fill="white"/>
<path d="M12.5 12H16C16.276 12 16.5 11.776 16.5 11.5V7.5H15.5V11H12.5V12Z" fill="white"/>
<path d="M18 11.5H17V13.5H18V11.5Z" fill="white"/>
<path d="M21.5 27H18V28H21.5V27Z" fill="white"/>
<path d="M22.5 29H18V30H22.5V29Z" fill="white"/>
<path d="M25 29H24V30H25.5C25.776 30 26 29.776 26 29.5V25.5H25V29Z" fill="white"/>
<path d="M9 21H8V22H9V21Z" fill="white"/>
<path d="M21.5 21H19.5V22H21.5V21Z" fill="white"/>
<path d="M24 19H23V20.5H24V19Z" fill="white"/>
<path d="M23.5 21.5H22.5V22.5H23.5V21.5Z" fill="white"/>
<path d="M21 23H19.5V24H21V23Z" fill="white"/>
<path d="M26 19H25V20H26V19Z" fill="white"/>
<path d="M28.5 17H27V18H28.5V17Z" fill="white"/>
<path d="M20 17H17.5V18H20V17Z" fill="white"/>
<path d="M18 14.5H17V16H18V14.5Z" fill="white"/>
</svg>
