<svg width="250" height="250" viewBox="0 0 250 250" fill="none" xmlns="http://www.w3.org/2000/svg">
<path d="M229.62 68.76C228.415 59.38 226.065 50.385 221.12 42.19C212 26.965 195.5 17.765 178.815 13.1C164.815 9.19 149.735 8.06 135.77 12.1C120.44 16.535 107.575 26.745 93.77 34.75C83.6644 40.5244 73.1143 45.4835 62.22 49.58C53.43 52.945 42.26 54.83 35.035 61.22C30.613 65.1674 26.692 69.6425 23.36 74.545C9.87 94.2 5.5 119.31 7.56 142.75C9.015 159.08 13.505 175.605 23.56 188.54C37.695 206.695 61.96 215.64 84.855 213.385C110.855 210.825 135.48 195.29 161.32 199.02C174.185 200.875 186.495 207.485 199.435 206.255C212.19 205.045 223.105 196.255 230.8 186.03C236.97 177.815 241.075 167.88 241.455 157.53C241.87 146.335 236.8 136.125 234.255 125.435C229.83 106.75 232.045 87.635 229.62 68.76Z" fill="#49A078"/>
<path opacity="0.7" d="M229.62 68.76C228.415 59.38 226.065 50.385 221.12 42.19C212 26.965 195.5 17.765 178.815 13.1C164.815 9.19 149.735 8.06 135.77 12.1C120.44 16.535 107.575 26.745 93.77 34.75C83.6644 40.5244 73.1143 45.4835 62.22 49.58C53.43 52.945 42.26 54.83 35.035 61.22C30.613 65.1674 26.692 69.6425 23.36 74.545C9.87 94.2 5.5 119.31 7.56 142.75C9.015 159.08 13.505 175.605 23.56 188.54C37.695 206.695 61.96 215.64 84.855 213.385C110.855 210.825 135.48 195.29 161.32 199.02C174.185 200.875 186.495 207.485 199.435 206.255C212.19 205.045 223.105 196.255 230.8 186.03C236.97 177.815 241.075 167.88 241.455 157.53C241.87 146.335 236.8 136.125 234.255 125.435C229.83 106.75 232.045 87.635 229.62 68.76Z" fill="white"/>
<path d="M167.465 157.62H240.435V154.87H167.465V157.62Z" stroke="#216869" stroke-linecap="round" stroke-linejoin="round"/>
<path d="M170.85 232H237.05V157.7H170.85V232Z" stroke="#216869" stroke-linecap="round" stroke-linejoin="round"/>
<path d="M173.235 177.28H234.75V161.16H173.235V177.28Z" stroke="#216869" stroke-linecap="round" stroke-linejoin="round"/>
<path d="M201.02 170.7H207.17V167.73H201.02V170.7Z" fill="#216869" stroke="#216869" stroke-linecap="round" stroke-linejoin="round"/>
<path d="M173.235 197.645H234.75V181.525H173.235V197.645Z" stroke="#216869" stroke-linecap="round" stroke-linejoin="round"/>
<path d="M201.02 191.07H207.17V188.1H201.02V191.07Z" fill="#216869" stroke="#216869" stroke-linecap="round" stroke-linejoin="round"/>
<path d="M173.235 218.1H234.75V201.98H173.235V218.1Z" stroke="#216869" stroke-linecap="round" stroke-linejoin="round"/>
<path d="M201.02 211.525H207.17V208.555H201.02V211.525Z" fill="#216869" stroke="#216869" stroke-linecap="round" stroke-linejoin="round"/>
<path d="M207 122.365C207.745 122.69 209.57 122.65 209.57 122.65C209.57 122.65 209.18 121.455 209.145 121.38C208.745 120.545 207.48 119.16 206.45 119.3C206.278 119.327 206.114 119.39 205.969 119.484C205.823 119.579 205.699 119.703 205.605 119.849C205.51 119.995 205.448 120.159 205.421 120.331C205.394 120.502 205.404 120.677 205.45 120.845C205.584 121.195 205.791 121.512 206.059 121.775C206.326 122.037 206.647 122.238 207 122.365Z" fill="#216869"/>
<path d="M225.435 122.765C225.435 122.765 225.765 121.555 225.775 121.475C225.905 120.555 225.61 118.705 224.675 118.25C224.517 118.179 224.346 118.143 224.172 118.143C223.999 118.143 223.828 118.179 223.67 118.25C223.511 118.321 223.37 118.424 223.255 118.553C223.139 118.683 223.052 118.835 223 119C222.917 119.365 222.913 119.743 222.99 120.109C223.067 120.475 223.222 120.82 223.445 121.12C223.89 121.79 225.43 122.765 225.435 122.765Z" fill="#216869"/>
<path d="M230.88 116.155C229.845 116.045 228.615 117.46 228.24 118.305C228.205 118.38 227.83 119.585 227.85 119.585C227.655 119.805 227.445 120.045 227.225 120.315C226.82 120.815 226.37 121.375 225.92 122.025C225.426 122.716 224.973 123.435 224.565 124.18C224.1 125.013 223.712 125.887 223.405 126.79C223.405 126.79 223.405 126.79 223.405 126.82C223.405 126.515 223.405 125.665 223.405 125.6C223.285 124.68 222.515 122.97 221.49 122.78C221.319 122.754 221.145 122.764 220.979 122.809C220.812 122.855 220.657 122.935 220.524 123.045C220.39 123.154 220.281 123.29 220.204 123.445C220.127 123.599 220.083 123.768 220.075 123.94C220.092 124.314 220.19 124.68 220.363 125.013C220.535 125.345 220.778 125.636 221.075 125.865C221.66 126.365 223.275 126.89 223.405 126.93C223.117 127.854 222.888 128.796 222.72 129.75C222.625 130.31 222.54 130.87 222.465 131.435C222.465 131.175 222.465 130.935 222.465 130.905C222.345 129.985 221.575 128.275 220.555 128.09C220.384 128.062 220.21 128.071 220.043 128.116C219.876 128.16 219.72 128.24 219.586 128.349C219.452 128.458 219.342 128.594 219.264 128.749C219.187 128.903 219.143 129.072 219.135 129.245C219.152 129.619 219.25 129.985 219.422 130.318C219.595 130.65 219.838 130.941 220.135 131.17C220.83 131.631 221.593 131.981 222.395 132.21C222.37 132.43 222.34 132.645 222.315 132.865C222.19 133.905 222.07 134.95 221.92 135.965C221.87 136.325 221.805 136.675 221.74 137.03C221.74 136.795 221.74 136.595 221.74 136.565C221.62 135.645 220.85 133.94 219.825 133.75C219.655 133.723 219.481 133.732 219.314 133.777C219.148 133.822 218.993 133.902 218.859 134.011C218.726 134.12 218.616 134.256 218.539 134.41C218.462 134.564 218.418 134.733 218.41 134.905C218.427 135.279 218.525 135.645 218.697 135.978C218.87 136.31 219.113 136.601 219.41 136.83C220.085 137.276 220.825 137.614 221.605 137.83C221.53 138.19 221.455 138.55 221.365 138.895C221.295 139.125 221.25 139.355 221.17 139.585C221.09 139.815 221.02 140.045 220.95 140.27C220.795 140.7 220.635 141.145 220.45 141.56C220.34 141.845 220.23 142.12 220.12 142.395C220.175 142.04 220.27 141.34 220.27 141.28C220.259 140.463 220.038 139.663 219.63 138.955C219.639 138.764 219.605 138.572 219.53 138.396C219.455 138.22 219.341 138.062 219.197 137.936C219.053 137.81 218.882 137.717 218.697 137.666C218.512 137.615 218.319 137.606 218.13 137.64C217.13 137.91 216.49 139.67 216.44 140.6C216.44 140.655 216.475 141.25 216.505 141.625C216.45 141.41 216.405 141.195 216.35 140.97C216.245 140.525 216.125 140.085 216 139.615C215.935 139.385 215.865 139.155 215.795 138.925C215.725 138.695 215.63 138.46 215.55 138.225C215.355 137.68 215.125 137.14 214.885 136.6C215.696 136.43 216.477 136.136 217.2 135.73C217.511 135.523 217.774 135.251 217.969 134.932C218.164 134.614 218.287 134.256 218.33 133.885C218.335 133.712 218.303 133.54 218.237 133.381C218.171 133.221 218.072 133.077 217.946 132.958C217.821 132.839 217.672 132.748 217.509 132.691C217.346 132.633 217.172 132.611 217 132.625C215.965 132.74 215.07 134.385 214.885 135.295C214.885 135.35 214.81 136.02 214.785 136.385C214.635 136.06 214.49 135.74 214.33 135.415C213.87 134.485 213.37 133.56 212.88 132.63C212.73 132.35 212.585 132.065 212.435 131.78C212.575 131.745 214.22 131.365 214.835 130.89C215.146 130.683 215.409 130.411 215.604 130.092C215.799 129.774 215.922 129.416 215.965 129.045C215.97 128.872 215.938 128.7 215.872 128.541C215.806 128.381 215.707 128.237 215.581 128.118C215.456 127.999 215.307 127.908 215.144 127.851C214.981 127.793 214.807 127.771 214.635 127.785C213.605 127.9 212.705 129.545 212.52 130.455C212.52 130.52 212.42 131.48 212.41 131.725C212.085 131.1 211.765 130.475 211.475 129.84C211.085 128.989 210.751 128.114 210.475 127.22C210.54 127.22 212.26 126.815 212.89 126.33C213.201 126.123 213.464 125.851 213.659 125.532C213.854 125.214 213.977 124.856 214.02 124.485C214.025 124.312 213.993 124.14 213.927 123.981C213.861 123.821 213.762 123.677 213.636 123.558C213.511 123.439 213.362 123.348 213.199 123.291C213.036 123.233 212.862 123.211 212.69 123.225C211.66 123.34 210.76 124.985 210.575 125.89C210.575 125.95 210.495 126.685 210.47 127.035H210.415C210.154 126.128 209.977 125.199 209.885 124.26C209.825 123.76 209.8 123.26 209.785 122.76C210.625 122.682 211.447 122.477 212.225 122.15C212.557 121.978 212.848 121.735 213.077 121.439C213.305 121.142 213.467 120.8 213.55 120.435C213.573 120.264 213.56 120.09 213.512 119.924C213.463 119.758 213.38 119.605 213.269 119.473C213.157 119.342 213.019 119.235 212.863 119.16C212.707 119.086 212.538 119.045 212.365 119.04C211.325 119.04 210.255 120.575 209.97 121.46C209.97 121.505 209.85 122.01 209.78 122.38C209.78 122.165 209.78 121.94 209.78 121.73C209.78 120.94 209.83 120.23 209.88 119.585C209.91 119.225 209.945 118.895 209.98 118.585C210.686 118.13 211.318 117.571 211.855 116.925C212.07 116.619 212.216 116.27 212.283 115.903C212.349 115.535 212.335 115.157 212.24 114.795C212.181 114.633 212.089 114.484 211.97 114.36C211.851 114.235 211.706 114.137 211.547 114.071C211.387 114.006 211.215 113.975 211.043 113.979C210.87 113.984 210.701 114.025 210.545 114.1C209.625 114.6 209.38 116.435 209.545 117.35C209.545 117.43 209.905 118.645 209.92 118.635C209.88 118.93 209.84 119.245 209.8 119.59C209.74 120.225 209.675 120.945 209.655 121.735C209.626 122.585 209.646 123.437 209.715 124.285C209.788 125.234 209.945 126.174 210.185 127.095V127.13C210.02 126.87 209.54 126.17 209.495 126.13C208.89 125.43 207.3 124.43 206.345 124.835C206.188 124.907 206.048 125.011 205.935 125.14C205.821 125.27 205.735 125.422 205.684 125.586C205.633 125.751 205.616 125.924 205.636 126.095C205.656 126.267 205.712 126.432 205.8 126.58C206.018 126.884 206.3 127.136 206.625 127.32C206.951 127.504 207.312 127.615 207.685 127.645C208.46 127.755 210.085 127.285 210.215 127.245C210.488 128.178 210.822 129.091 211.215 129.98C211.44 130.48 211.68 131.01 211.93 131.525L211.625 131.09C211.015 130.385 209.43 129.39 208.475 129.795C208.318 129.866 208.177 129.97 208.063 130.099C207.949 130.229 207.863 130.381 207.812 130.545C207.76 130.71 207.744 130.884 207.764 131.055C207.785 131.227 207.841 131.392 207.93 131.54C208.148 131.844 208.43 132.096 208.755 132.28C209.081 132.464 209.442 132.575 209.815 132.605C210.65 132.605 211.479 132.476 212.275 132.225C212.375 132.42 212.47 132.62 212.565 132.815C213.065 133.755 213.51 134.69 213.95 135.62C214.105 135.945 214.245 136.275 214.385 136.62C214.255 136.425 214.14 136.265 214.12 136.24C213.515 135.54 211.925 134.54 210.97 134.945C210.813 135.017 210.673 135.122 210.559 135.252C210.445 135.382 210.36 135.534 210.309 135.699C210.257 135.864 210.241 136.038 210.261 136.209C210.281 136.381 210.337 136.546 210.425 136.695C210.644 136.997 210.926 137.249 211.251 137.432C211.577 137.615 211.938 137.725 212.31 137.755C213.122 137.758 213.93 137.636 214.705 137.395C214.84 137.735 214.975 138.075 215.09 138.395C215.16 138.625 215.25 138.845 215.31 139.08L215.505 139.77C215.61 140.215 215.72 140.67 215.815 141.11C215.88 141.41 215.94 141.7 216 141.99C215.85 141.665 215.545 141.025 215.5 140.99C215 140.205 213.59 138.99 212.585 139.235C212.419 139.283 212.265 139.365 212.133 139.476C212.001 139.587 211.893 139.724 211.817 139.879C211.742 140.034 211.699 140.203 211.693 140.375C211.686 140.548 211.716 140.72 211.78 140.88C211.95 141.213 212.191 141.505 212.486 141.735C212.78 141.966 213.121 142.129 213.485 142.215C214.328 142.344 215.187 142.344 216.03 142.215C216.13 142.715 216.22 143.17 216.295 143.615C216.465 144.59 216.595 145.465 216.695 146.21H212.6V154.82H223.37V146.195H219.205C219.475 145.595 219.77 144.915 220.08 144.16C220.27 143.695 220.465 143.195 220.66 142.685C220.855 142.725 222.455 143.05 223.2 142.88C223.568 142.823 223.92 142.686 224.23 142.478C224.54 142.271 224.801 141.999 224.995 141.68C225.072 141.526 225.116 141.357 225.124 141.184C225.131 141.011 225.102 140.839 225.039 140.679C224.975 140.518 224.878 140.373 224.754 140.252C224.63 140.132 224.482 140.039 224.32 139.98C223.32 139.645 221.82 140.765 221.28 141.515C221.245 141.555 220.945 142.075 220.78 142.405C220.86 142.195 220.94 141.99 221.015 141.775C221.175 141.345 221.32 140.91 221.475 140.45C221.545 140.22 221.61 139.99 221.68 139.76C221.75 139.53 221.805 139.26 221.865 139.04C222 138.475 222.11 137.9 222.205 137.315C222.974 137.625 223.788 137.812 224.615 137.87C224.989 137.87 225.358 137.789 225.697 137.631C226.035 137.472 226.335 137.242 226.575 136.955C226.674 136.814 226.743 136.653 226.777 136.484C226.81 136.314 226.807 136.139 226.768 135.971C226.73 135.803 226.656 135.644 226.552 135.506C226.448 135.368 226.316 135.254 226.165 135.17C225.24 134.695 223.585 135.575 222.925 136.23C222.885 136.27 222.465 136.79 222.24 137.085C222.295 136.73 222.35 136.38 222.395 136.025C222.525 134.995 222.62 133.945 222.725 132.905C222.755 132.585 222.79 132.265 222.825 131.945C222.955 131.995 224.54 132.585 225.325 132.53C226.015 132.48 226.885 132.23 227.285 131.615C227.384 131.473 227.451 131.312 227.484 131.143C227.516 130.973 227.513 130.799 227.474 130.63C227.435 130.462 227.361 130.304 227.257 130.166C227.153 130.028 227.021 129.914 226.87 129.83C225.95 129.33 224.29 130.23 223.635 130.885C223.585 130.935 222.98 131.69 222.84 131.885C222.915 131.18 222.995 130.48 223.1 129.795C223.24 128.868 223.441 127.951 223.7 127.05C223.76 127.05 225.41 127.695 226.2 127.64C226.574 127.639 226.942 127.557 227.281 127.399C227.619 127.241 227.919 127.011 228.16 126.725C228.26 126.584 228.328 126.423 228.362 126.254C228.395 126.084 228.392 125.909 228.353 125.741C228.315 125.573 228.241 125.414 228.137 125.276C228.033 125.138 227.901 125.024 227.75 124.94C226.825 124.465 225.17 125.34 224.51 125.995C224.465 126.04 224.01 126.615 223.795 126.89H223.745C224.029 125.989 224.394 125.116 224.835 124.28C225.07 123.82 225.335 123.39 225.575 122.98C226.32 123.377 227.121 123.658 227.95 123.815C228.322 123.854 228.698 123.811 229.052 123.69C229.406 123.569 229.729 123.373 230 123.115C230.114 122.985 230.199 122.833 230.25 122.669C230.301 122.504 230.317 122.331 230.296 122.16C230.276 121.989 230.22 121.824 230.132 121.675C230.044 121.527 229.926 121.399 229.785 121.3C228.915 120.725 227.175 121.415 226.45 121.995C226.41 122.025 226.045 122.39 225.78 122.66C225.9 122.475 226.015 122.28 226.135 122.11C226.565 121.455 227.005 120.88 227.4 120.375C227.625 120.09 227.835 119.84 228.03 119.605C228.876 119.613 229.719 119.493 230.53 119.25C230.879 119.115 231.194 118.906 231.453 118.636C231.712 118.367 231.909 118.044 232.03 117.69C232.077 117.512 232.083 117.325 232.047 117.144C232.012 116.963 231.936 116.793 231.825 116.645C231.715 116.497 231.572 116.377 231.409 116.292C231.245 116.207 231.064 116.16 230.88 116.155ZM219.435 143.92C219.065 144.78 218.705 145.545 218.395 146.195H217.3C217.185 145.425 217.03 144.51 216.8 143.485C216.705 142.985 216.59 142.485 216.47 141.94C216.955 141.743 217.429 141.519 217.89 141.27C218.517 141.808 219.215 142.257 219.965 142.605C219.805 143.06 219.62 143.5 219.435 143.92Z" fill="#216869"/>
<path d="M14.235 158.48L20.035 214.045" stroke="#216869" stroke-width="2" stroke-miterlimit="10"/>
<path d="M19.1 203.41L16.47 200.635" stroke="#216869" stroke-width="2" stroke-miterlimit="10"/>
<path d="M17.27 201.465C17.2635 201.041 17.167 200.622 16.9869 200.238C16.8068 199.853 16.5471 199.512 16.225 199.235C15.55 198.635 11.995 197.14 11.66 198.39C11.295 199.75 14.93 202.42 17.27 201.465Z" fill="#49A078" stroke="#216869" stroke-miterlimit="10"/>
<path d="M17.27 201.465L13.89 199.36" stroke="#216869" stroke-width="0.5" stroke-miterlimit="10"/>
<path d="M19.76 209.73L17.13 206.955" stroke="#216869" stroke-width="2" stroke-miterlimit="10"/>
<path d="M17.93 207.785C17.9235 207.361 17.827 206.942 17.6469 206.558C17.4667 206.173 17.2071 205.832 16.885 205.555C16.21 204.955 12.655 203.46 12.32 204.71C11.955 206.07 15.59 208.74 17.93 207.785Z" fill="#49A078" stroke="#216869" stroke-miterlimit="10"/>
<path d="M17.93 207.785L14.55 205.68" stroke="#216869" stroke-width="0.5" stroke-miterlimit="10"/>
<path d="M17.49 187.99L14.86 185.215" stroke="#216869" stroke-width="2" stroke-miterlimit="10"/>
<path d="M15.66 186.045C15.6536 185.621 15.5571 185.202 15.3769 184.818C15.1968 184.433 14.9371 184.092 14.615 183.815C13.94 183.21 10.385 181.72 10.05 182.97C9.68504 184.33 13.32 187 15.66 186.045Z" fill="#49A078" stroke="#216869" stroke-miterlimit="10"/>
<path d="M15.66 186.045L12.28 183.94" stroke="#216869" stroke-width="0.5" stroke-miterlimit="10"/>
<path d="M18.15 194.31L15.52 191.535" stroke="#216869" stroke-width="2" stroke-miterlimit="10"/>
<path d="M16.32 192.365C16.3135 191.941 16.217 191.522 16.0369 191.138C15.8567 190.753 15.5971 190.412 15.275 190.135C14.6 189.53 11.045 188.04 10.71 189.29C10.345 190.65 14 193.32 16.32 192.365Z" fill="#49A078" stroke="#216869" stroke-miterlimit="10"/>
<path d="M16.32 192.365L12.94 190.26" stroke="#216869" stroke-width="0.5" stroke-miterlimit="10"/>
<path d="M16.42 177.725L13.79 174.945" stroke="#216869" stroke-width="2" stroke-miterlimit="10"/>
<path d="M14.59 175.78C14.5849 175.355 14.4884 174.936 14.3073 174.551C14.1261 174.166 13.8645 173.825 13.54 173.55C12.865 172.945 9.31504 171.455 8.98004 172.705C8.61504 174.065 12.25 176.735 14.59 175.78Z" fill="#49A078" stroke="#216869" stroke-miterlimit="10"/>
<path d="M14.59 175.78L11.21 173.675" stroke="#216869" stroke-width="0.5" stroke-miterlimit="10"/>
<path d="M15.345 167.415L12.715 164.635" stroke="#216869" stroke-width="2" stroke-miterlimit="10"/>
<path d="M13.5 165.47C13.4948 165.045 13.3984 164.626 13.2173 164.241C13.0361 163.856 12.7745 163.515 12.45 163.24C11.775 162.635 8.22502 161.14 7.89002 162.395C7.53502 163.755 11.17 166.425 13.5 165.47Z" fill="#49A078" stroke="#216869" stroke-miterlimit="10"/>
<path d="M13.515 165.47L10.13 163.36" stroke="#216869" stroke-width="0.5" stroke-miterlimit="10"/>
<path d="M18.66 199.67L20.655 196.41" stroke="#216869" stroke-width="2" stroke-miterlimit="10"/>
<path d="M20.045 197.39C19.9653 196.974 19.9744 196.546 20.0717 196.135C20.1691 195.723 20.3526 195.336 20.61 195C21.145 194.27 24.31 192.075 24.9 193.23C25.54 194.5 22.535 197.845 20.045 197.39Z" fill="#49A078" stroke="#216869" stroke-miterlimit="10"/>
<path d="M20.045 197.39L23.09 194.48" stroke="#216869" stroke-width="0.5" stroke-miterlimit="10"/>
<path d="M16.92 183.04L18.92 179.78" stroke="#216869" stroke-width="2" stroke-miterlimit="10"/>
<path d="M18.31 180.76C18.2295 180.344 18.2383 179.915 18.3356 179.502C18.433 179.089 18.6169 178.702 18.875 178.365C19.41 177.635 22.575 175.44 23.165 176.595C23.805 177.85 20.8 181.215 18.31 180.76Z" fill="#49A078" stroke="#216869" stroke-miterlimit="10"/>
<path d="M18.31 180.76L21.355 177.85" stroke="#216869" stroke-width="0.5" stroke-miterlimit="10"/>
<path d="M16.16 175.735L18.16 172.475" stroke="#216869" stroke-width="2" stroke-miterlimit="10"/>
<path d="M17.55 173.455C17.4681 173.038 17.4756 172.609 17.5722 172.195C17.6687 171.781 17.8521 171.393 18.11 171.055C18.65 170.325 21.815 168.13 22.4 169.285C23.04 170.54 20.035 173.905 17.55 173.455Z" fill="#49A078" stroke="#216869" stroke-miterlimit="10"/>
<path d="M17.55 173.455L20.595 170.545" stroke="#216869" stroke-width="0.5" stroke-miterlimit="10"/>
<path d="M15.04 165.02L17.04 161.76" stroke="#216869" stroke-width="2" stroke-miterlimit="10"/>
<path d="M16.43 162.74C16.3488 162.323 16.3572 161.893 16.4546 161.479C16.552 161.066 16.7362 160.677 16.995 160.34C17.53 159.61 20.695 157.415 21.285 158.57C21.925 159.825 18.92 163.19 16.43 162.74Z" fill="#49A078" stroke="#216869" stroke-miterlimit="10"/>
<path d="M16.43 162.74L19.475 159.83" stroke="#216869" stroke-width="0.5" stroke-miterlimit="10"/>
<path d="M14.185 158.17C14.1038 157.753 14.1122 157.323 14.2096 156.909C14.307 156.496 14.4912 156.107 14.75 155.77C15.285 155.04 18.45 152.845 19.04 154C19.68 155.255 16.675 158.62 14.185 158.17Z" fill="#49A078" stroke="#216869" stroke-miterlimit="10"/>
<path d="M14.185 158.17L17.23 155.26" stroke="#216869" stroke-width="0.5" stroke-miterlimit="10"/>
<path d="M14.365 158.295C13.9425 158.335 13.5164 158.285 13.1147 158.148C12.7131 158.01 12.3451 157.79 12.035 157.5C11.37 156.89 9.53505 153.5 10.7251 153.045C12.0401 152.525 15.075 155.87 14.365 158.295Z" fill="#49A078" stroke="#216869" stroke-miterlimit="10"/>
<path d="M14.365 158.295L11.79 154.96" stroke="#216869" stroke-width="0.5" stroke-miterlimit="10"/>
<path d="M29.53 166.13L23.765 221.7" stroke="#216869" stroke-width="2" stroke-miterlimit="10"/>
<path d="M25.04 211.1L23.04 207.845" stroke="#216869" stroke-width="2" stroke-miterlimit="10"/>
<path d="M23.65 208.82C23.7305 208.404 23.7218 207.975 23.6244 207.562C23.527 207.149 23.3432 206.762 23.085 206.425C22.545 205.695 19.38 203.505 18.79 204.655C18.155 205.915 21.16 209.275 23.65 208.82Z" fill="#49A078" stroke="#216869" stroke-miterlimit="10"/>
<path d="M23.65 208.82L20.775 206.065" stroke="#216869" stroke-width="0.5" stroke-miterlimit="10"/>
<path d="M26.64 195.68L24.64 192.42" stroke="#216869" stroke-width="2" stroke-miterlimit="10"/>
<path d="M25.25 193.4C25.3312 192.983 25.3229 192.553 25.2255 192.139C25.1281 191.726 24.9438 191.337 24.685 191C24.15 190.27 20.98 188.075 20.395 189.23C19.755 190.5 22.76 193.855 25.25 193.4Z" fill="#49A078" stroke="#216869" stroke-miterlimit="10"/>
<path d="M25.25 193.4L22.375 190.64" stroke="#216869" stroke-width="0.5" stroke-miterlimit="10"/>
<path d="M25.985 202L23.985 198.74" stroke="#216869" stroke-width="2" stroke-miterlimit="10"/>
<path d="M24.595 199.72C24.6755 199.304 24.6667 198.875 24.5694 198.462C24.472 198.049 24.2881 197.662 24.03 197.325C23.49 196.595 20.325 194.4 19.735 195.555C19.1 196.81 22.105 200.175 24.595 199.72Z" fill="#49A078" stroke="#216869" stroke-miterlimit="10"/>
<path d="M24.595 199.72L21.72 196.96" stroke="#216869" stroke-width="0.5" stroke-miterlimit="10"/>
<path d="M27.705 185.415L25.705 182.155" stroke="#216869" stroke-width="2" stroke-miterlimit="10"/>
<path d="M26.315 183.135C26.3962 182.718 26.3879 182.288 26.2905 181.874C26.1931 181.461 26.0088 181.072 25.75 180.735C25.215 180.01 22.045 177.815 21.46 178.97C20.82 180.225 23.825 183.59 26.315 183.135Z" fill="#49A078" stroke="#216869" stroke-miterlimit="10"/>
<path d="M26.315 183.135L23.44 180.375" stroke="#216869" stroke-width="0.5" stroke-miterlimit="10"/>
<path d="M28.775 175.105L26.775 171.845" stroke="#216869" stroke-width="2" stroke-miterlimit="10"/>
<path d="M27.385 172.825C27.4662 172.408 27.4579 171.978 27.3605 171.564C27.2631 171.151 27.0788 170.762 26.82 170.425C26.285 169.695 23.115 167.505 22.53 168.66C21.89 169.915 24.895 173.275 27.385 172.825Z" fill="#49A078" stroke="#216869" stroke-miterlimit="10"/>
<path d="M27.385 172.825L24.51 170.065" stroke="#216869" stroke-width="0.5" stroke-miterlimit="10"/>
<path d="M25.375 207.35L28.005 204.575" stroke="#216869" stroke-width="2" stroke-miterlimit="10"/>
<path d="M27.205 205.405C27.2115 204.981 27.308 204.562 27.4881 204.178C27.6683 203.793 27.928 203.452 28.25 203.175C28.925 202.575 32.475 201.075 32.815 202.325C33.18 203.685 29.545 206.36 27.205 205.405Z" fill="#49A078" stroke="#216869" stroke-miterlimit="10"/>
<path d="M27.205 205.405L30.785 203.185" stroke="#216869" stroke-width="0.5" stroke-miterlimit="10"/>
<path d="M27.1 190.72L29.73 187.945" stroke="#216869" stroke-width="2" stroke-miterlimit="10"/>
<path d="M28.93 188.775C28.9396 188.349 29.04 187.929 29.2245 187.545C29.409 187.16 29.6734 186.819 30 186.545C30.675 185.94 34.225 184.445 34.565 185.695C34.905 187.055 31.275 189.73 28.93 188.775Z" fill="#49A078" stroke="#216869" stroke-miterlimit="10"/>
<path d="M28.93 188.775L32.51 186.555" stroke="#216869" stroke-width="0.5" stroke-miterlimit="10"/>
<path d="M27.86 183.41L30.49 180.635" stroke="#216869" stroke-width="2" stroke-miterlimit="10"/>
<path d="M29.69 181.465C29.6965 181.041 29.793 180.622 29.9731 180.238C30.1533 179.853 30.413 179.512 30.735 179.235C31.41 178.635 34.96 177.135 35.295 178.385C35.665 179.75 32.03 182.42 29.69 181.465Z" fill="#49A078" stroke="#216869" stroke-miterlimit="10"/>
<path d="M29.69 181.465L33.27 179.245" stroke="#216869" stroke-width="0.5" stroke-miterlimit="10"/>
<path d="M28.97 172.7L31.6 169.92" stroke="#216869" stroke-width="2" stroke-miterlimit="10"/>
<path d="M30.8 170.75C30.8037 170.322 30.8988 169.9 31.0791 169.512C31.2593 169.124 31.5205 168.779 31.845 168.5C32.52 167.9 36.07 166.4 36.41 167.655C36.775 169.035 33.145 171.705 30.8 170.75Z" fill="#49A078" stroke="#216869" stroke-miterlimit="10"/>
<path d="M30.8 170.75L34.3801 168.53" stroke="#216869" stroke-width="0.5" stroke-miterlimit="10"/>
<path d="M29.545 165.82C29.5515 165.396 29.648 164.977 29.8282 164.593C30.0083 164.208 30.268 163.867 30.59 163.59C31.265 162.985 34.815 161.49 35.155 162.74C35.5 164.1 31.89 166.775 29.545 165.82Z" fill="#49A078" stroke="#216869" stroke-miterlimit="10"/>
<path d="M29.545 165.82L33.125 163.6" stroke="#216869" stroke-width="0.5" stroke-miterlimit="10"/>
<path d="M29.695 166C29.2729 165.952 28.8662 165.813 28.5022 165.594C28.1382 165.375 27.8254 165.08 27.585 164.73C27.055 163.995 25.94 160.31 27.22 160.105C28.61 159.855 30.89 163.75 29.695 166Z" fill="#49A078" stroke="#216869" stroke-miterlimit="10"/>
<path d="M29.695 165.975L27.86 162.185" stroke="#216869" stroke-width="0.5" stroke-miterlimit="10"/>
<path d="M22.92 143.5V213.775" stroke="#216869" stroke-width="2" stroke-miterlimit="10"/>
<path d="M22.98 203.21L20.65 200.175" stroke="#216869" stroke-width="2" stroke-miterlimit="10"/>
<path d="M21.36 201.085C21.3979 200.661 21.3452 200.235 21.2056 199.833C21.0659 199.431 20.8425 199.064 20.55 198.755C19.94 198.09 16.55 196.255 16.1 197.445C15.595 198.755 18.93 201.79 21.36 201.085Z" fill="#49A078" stroke="#216869" stroke-miterlimit="10"/>
<path d="M21.36 201.085L18.215 198.64" stroke="#216869" stroke-width="0.5" stroke-miterlimit="10"/>
<path d="M22.98 190L20.65 186.97" stroke="#216869" stroke-width="2" stroke-miterlimit="10"/>
<path d="M21.36 187.88C21.3979 187.456 21.3452 187.03 21.2056 186.628C21.0659 186.226 20.8425 185.859 20.55 185.55C19.94 184.88 16.55 183.025 16.1 184.235C15.595 185.55 18.93 188.585 21.36 187.88Z" fill="#49A078" stroke="#216869" stroke-miterlimit="10"/>
<path d="M21.36 187.88L18.215 185.43" stroke="#216869" stroke-width="0.5" stroke-miterlimit="10"/>
<path d="M22.98 174.5L20.65 171.465" stroke="#216869" stroke-width="2" stroke-miterlimit="10"/>
<path d="M21.36 172.375C21.3979 171.951 21.3452 171.525 21.2056 171.123C21.0659 170.721 20.8425 170.354 20.55 170.045C19.94 169.375 16.55 167.545 16.1 168.73C15.595 170.045 18.93 173.08 21.36 172.375Z" fill="#49A078" stroke="#216869" stroke-miterlimit="10"/>
<path d="M21.36 172.375L18.215 169.925" stroke="#216869" stroke-width="0.5" stroke-miterlimit="10"/>
<path d="M22.98 164.175L20.65 161.14" stroke="#216869" stroke-width="2" stroke-miterlimit="10"/>
<path d="M21.36 162.05C21.3971 161.627 21.3441 161.201 21.2045 160.801C21.0649 160.4 20.8418 160.033 20.55 159.725C19.94 159.055 16.55 157.2 16.1 158.41C15.595 159.725 18.93 162.76 21.36 162.05Z" fill="#49A078" stroke="#216869" stroke-miterlimit="10"/>
<path d="M21.36 162.05L18.215 159.605" stroke="#216869" stroke-width="0.5" stroke-miterlimit="10"/>
<path d="M22.98 153.81L20.65 150.775" stroke="#216869" stroke-width="2" stroke-miterlimit="10"/>
<path d="M21.36 151.685C21.3971 151.262 21.3441 150.836 21.2045 150.436C21.0649 150.035 20.8418 149.668 20.55 149.36C19.94 148.69 16.55 146.835 16.1 148.045C15.595 149.36 18.93 152.395 21.36 151.685Z" fill="#49A078" stroke="#216869" stroke-miterlimit="10"/>
<path d="M21.36 151.685L18.215 149.24" stroke="#216869" stroke-width="0.5" stroke-miterlimit="10"/>
<path d="M22.925 207.24L25.255 204.205" stroke="#216869" stroke-width="2" stroke-miterlimit="10"/>
<path d="M24.545 205.115C24.5079 204.692 24.5609 204.266 24.7005 203.866C24.8401 203.465 25.0632 203.098 25.355 202.79C25.965 202.12 29.355 200.265 29.805 201.475C30.31 202.79 27 205.825 24.545 205.115Z" fill="#49A078" stroke="#216869" stroke-miterlimit="10"/>
<path d="M24.545 205.115L27.875 202.54" stroke="#216869" stroke-width="0.5" stroke-miterlimit="10"/>
<path d="M22.925 186.235L25.255 183.205" stroke="#216869" stroke-width="2" stroke-miterlimit="10"/>
<path d="M24.545 184.115C24.5072 183.691 24.5598 183.265 24.6995 182.863C24.8391 182.461 25.0626 182.094 25.355 181.785C25.965 181.115 29.355 179.285 29.805 180.47C30.31 181.785 27 184.82 24.545 184.115Z" fill="#49A078" stroke="#216869" stroke-miterlimit="10"/>
<path d="M24.545 184.115L27.875 181.535" stroke="#216869" stroke-width="0.5" stroke-miterlimit="10"/>
<path d="M22.925 175.87L25.255 172.835" stroke="#216869" stroke-width="2" stroke-miterlimit="10"/>
<path d="M24.545 173.745C24.5079 173.322 24.5609 172.896 24.7005 172.496C24.8401 172.095 25.0632 171.728 25.355 171.42C25.965 170.75 29.355 168.92 29.805 170.105C30.31 171.42 27 174.455 24.545 173.745Z" fill="#49A078" stroke="#216869" stroke-miterlimit="10"/>
<path d="M24.545 173.745L27.875 171.17" stroke="#216869" stroke-width="0.5" stroke-miterlimit="10"/>
<path d="M22.925 162.17L25.255 159.135" stroke="#216869" stroke-width="2" stroke-miterlimit="10"/>
<path d="M24.545 160.045C24.5079 159.622 24.5609 159.196 24.7005 158.796C24.8401 158.395 25.0632 158.028 25.355 157.72C25.965 157.05 29.355 155.195 29.805 156.405C30.31 157.72 27 160.755 24.545 160.045Z" fill="#49A078" stroke="#216869" stroke-miterlimit="10"/>
<path d="M24.545 160.045L27.875 157.465" stroke="#216869" stroke-width="0.5" stroke-miterlimit="10"/>
<path d="M22.925 151.395L25.255 148.36" stroke="#216869" stroke-width="2" stroke-miterlimit="10"/>
<path d="M24.545 149.275C24.5072 148.851 24.5598 148.425 24.6995 148.023C24.8391 147.621 25.0626 147.254 25.355 146.945C25.965 146.275 29.355 144.42 29.805 145.63C30.31 146.945 27 150 24.545 149.275Z" fill="#49A078" stroke="#216869" stroke-miterlimit="10"/>
<path d="M24.545 149.275L27.875 146.695" stroke="#216869" stroke-width="0.5" stroke-miterlimit="10"/>
<path d="M22.79 144.5C22.75 144.077 22.8011 143.651 22.94 143.25C23.0789 142.849 23.3022 142.482 23.595 142.175C24.205 141.505 27.595 139.675 28.05 140.86C28.555 142.17 25.215 145.205 22.79 144.5Z" fill="#49A078" stroke="#216869" stroke-miterlimit="10"/>
<path d="M22.79 144.495L26.12 141.915" stroke="#216869" stroke-width="0.5" stroke-miterlimit="10"/>
<path d="M22.95 144.64C22.5251 144.633 22.1066 144.536 21.7222 144.355C21.3378 144.174 20.9962 143.913 20.72 143.59C20.12 142.915 18.63 139.36 19.88 139.025C21.24 138.66 23.91 142.3 22.95 144.64Z" fill="#49A078" stroke="#216869" stroke-miterlimit="10"/>
<path d="M22.95 144.64L20.735 141.055" stroke="#216869" stroke-width="0.5" stroke-miterlimit="10"/>
<path d="M25.815 232H18.37L17.44 213.205H26.745L25.815 232Z" fill="#216869" stroke="#216869" stroke-miterlimit="10"/>
<path d="M57.54 88.09H12.83V16.915H68.185V88.09H60.445" stroke="#216869" stroke-miterlimit="10"/>
<path d="M66.18 19.495H14.84V85.51H66.18V19.495Z" stroke="#216869" stroke-miterlimit="10"/>
<path d="M25.125 37.575C26.0336 38.4158 27.0047 39.1863 28.03 39.88C39.645 47.76 59.345 44.03 65.98 55.225" stroke="#216869" stroke-miterlimit="10"/>
<path d="M18.285 19.765C18.0068 22.7139 18.342 25.6885 19.2697 28.5015C20.1973 31.3145 21.6972 33.9051 23.675 36.11" stroke="#216869" stroke-miterlimit="10"/>
<path d="M22.685 56.13C28.35 53.13 35.685 51.015 39.44 57.09C43.795 64.145 23.675 76.59 23.675 85.5" stroke="#216869" stroke-miterlimit="10"/>
<path d="M14.97 61.24C16.9096 59.6729 18.9655 58.2554 21.12 57" stroke="#216869" stroke-miterlimit="10"/>
<path d="M41.72 19.765C41.72 19.765 49.185 31.38 66.19 28.265" stroke="#216869" stroke-miterlimit="10"/>
<path d="M43.95 31.17C43.9844 31.4453 44.0011 31.7226 44 32C43.9975 33.669 43.3845 35.2794 42.2765 36.5275C41.1685 37.7757 39.6421 38.5752 37.9851 38.7755C36.3282 38.9758 34.6553 38.5628 33.2818 37.6146C31.9083 36.6664 30.9293 35.2484 30.5293 33.6281C30.1292 32.0077 30.3359 30.297 31.1103 28.8186C31.8847 27.3401 33.1732 26.1961 34.733 25.6022C36.2927 25.0083 38.0159 25.0057 39.5775 25.5948C41.139 26.1838 42.4311 27.3239 43.21 28.8" stroke="#216869" stroke-miterlimit="10"/>
<path d="M61 41.23C60.9971 41.8654 60.8059 42.4857 60.4506 43.0126C60.0953 43.5394 59.5919 43.9491 59.0038 44.19C58.4158 44.4309 57.7696 44.4922 57.1468 44.366C56.524 44.2399 55.9526 43.932 55.5047 43.4813C55.0567 43.0306 54.7524 42.4572 54.6302 41.8337C54.5079 41.2101 54.5731 40.5643 54.8177 39.9778C55.0622 39.3913 55.4751 38.8904 56.0041 38.5384C56.5331 38.1864 57.1546 37.999 57.79 38C58.2133 38 58.6323 38.0837 59.0231 38.2463C59.4139 38.4088 59.7686 38.6471 60.0669 38.9473C60.3653 39.2474 60.6013 39.6037 60.7615 39.9954C60.9216 40.3872 61.0027 40.8068 61 41.23Z" stroke="#216869" stroke-miterlimit="10"/>
<path d="M61.045 62.915C62.8558 63.3861 64.5452 64.2384 66 65.415" stroke="#216869" stroke-miterlimit="10"/>
<path d="M48.73 85.55C46.7606 83.7439 45.3823 81.3852 44.7756 78.7828C44.1689 76.1803 44.3621 73.4553 45.3298 70.9645C46.2975 68.4736 47.9946 66.333 50.1992 64.8227C52.4037 63.3124 55.0128 62.5028 57.685 62.5C57.945 62.5 58.185 62.5 58.45 62.5" stroke="#216869" stroke-miterlimit="10"/>
<path d="M161 232H240.5" stroke="#216869" stroke-miterlimit="10"/>
<path d="M8 232H157" stroke="#216869" stroke-miterlimit="10"/>
<path d="M197.765 21.25H96.85V208.195H197.765V21.25Z" fill="white"/>
<path d="M197.765 176.315H96.85V208.195H197.765V176.315Z" fill="#B3B0B8"/>
<path d="M200.795 58.03C201.125 58.03 201.442 57.8988 201.675 57.6653C201.909 57.4319 202.04 57.1152 202.04 56.785V44.32C202.04 43.9898 201.909 43.6731 201.675 43.4396C201.442 43.2062 201.125 43.075 200.795 43.075C200.717 43.0674 200.638 43.0674 200.56 43.075V19.78C200.56 17.649 199.713 15.6052 198.207 14.0984C196.7 12.5915 194.656 11.745 192.525 11.745H103.95C102.894 11.7443 101.849 11.9517 100.874 12.3552C99.8982 12.7587 99.0118 13.3504 98.2652 14.0966C97.5185 14.8428 96.9262 15.7288 96.5221 16.704C96.118 17.6792 95.91 18.7244 95.91 19.78V207.925C95.91 210.057 96.7571 212.102 98.2649 213.61C99.7727 215.118 101.818 215.965 103.95 215.965H192.525C194.656 215.964 196.7 215.116 198.207 213.608C199.714 212.101 200.56 210.056 200.56 207.925V93.465C200.638 93.4726 200.717 93.4726 200.795 93.465C201.126 93.4637 201.442 93.3314 201.676 93.0971C201.909 92.8628 202.04 92.5457 202.04 92.215V79.775C202.04 79.4448 201.909 79.1281 201.675 78.8947C201.442 78.6612 201.125 78.53 200.795 78.53C200.716 78.5306 200.637 78.539 200.56 78.555V75.735C200.637 75.751 200.716 75.7594 200.795 75.76C201.125 75.7587 201.441 75.6271 201.674 75.3939C201.907 75.1607 202.039 74.8448 202.04 74.515V62.045C202.039 61.7152 201.907 61.3993 201.674 61.1661C201.441 60.9329 201.125 60.8013 200.795 60.8C200.716 60.8006 200.637 60.809 200.56 60.825V58C200.637 58.0177 200.716 58.0277 200.795 58.03ZM195.905 203.845H100.565V25.61H195.905V203.845Z" fill="#216869"/>
<path d="M192.66 27.46H184.755V31.795H192.66V27.46Z" stroke="#216869" stroke-width="0.821067" stroke-linecap="round" stroke-linejoin="round"/>
<path d="M190.92 27.46H184.755V31.795H190.92V27.46Z" fill="#216869" stroke="#216869" stroke-width="0.725073" stroke-linecap="round" stroke-linejoin="round"/>
<path d="M193.76 28.675H192.645V30.585H193.76V28.675Z" fill="#216869" stroke="#216869" stroke-width="0.725073" stroke-linecap="round" stroke-linejoin="round"/>
<path d="M104.16 28.805H102.71V31.29H104.16V28.805Z" fill="#216869" stroke="#216869" stroke-width="0.883086" stroke-linecap="round" stroke-linejoin="round"/>
<path d="M106.44 27.935H104.99V31.29H106.44V27.935Z" fill="#216869" stroke="#216869" stroke-width="0.883086" stroke-linecap="round" stroke-linejoin="round"/>
<path d="M108.715 26.9H107.265V31.29H108.715V26.9Z" fill="#216869" stroke="#216869" stroke-width="0.883086" stroke-linecap="round" stroke-linejoin="round"/>
<path d="M193.655 34.205H102.1V58.265H193.655V34.205Z" fill="#49A078"/>
<path d="M125.24 37.67V55.335" stroke="white" stroke-miterlimit="10"/>
<path d="M148.57 37.67V55.335" stroke="white" stroke-miterlimit="10"/>
<path d="M171.905 37.67V55.335" stroke="white" stroke-miterlimit="10"/>
<path opacity="0.15" d="M199.735 93.465C199.813 93.4726 199.892 93.4726 199.97 93.465C200.301 93.4637 200.617 93.3314 200.851 93.0971C201.084 92.8628 201.215 92.5457 201.215 92.215V87.75L195.08 98.565V203.845H135.395L128.5 215.965H191.695C193.827 215.965 195.872 215.118 197.38 213.61C198.888 212.102 199.735 210.057 199.735 207.925V93.465Z" fill="white"/>
<path d="M144.365 141.215V135.5H147.22V132.625H144.375C144.375 131.67 144.375 130.71 144.375 129.755H150.1V126.9H152.96V129.74H155.83V124H164.43V126.855H167.275V124H164.42V121.12H158.685V115.43H150.08V118.29H144.375V124.025H147.215V126.885H144.36V129.75H141.5V126.88H132.905V124.025H141.5V101.085H144.375C144.375 103.845 144.375 106.605 144.375 109.365V109.675H147.24V103.96H150.095V109.685H152.975V112.54H167.305V115.4H170.175V118.285H167.32V121.16H170.165V126.9H173.04V132.63H170.195V138.35H173V141.215H178.725V144.075H170.165V149.8H167.305V146.94H161.555V144.075H158.695V141.215H164.4V138.35H150.105V141.2H144.365V141.215ZM161.555 132.615V129.765H158.71V132.61H161.565V135.465H167.275V132.615H161.555ZM155.815 132.615H153V135.45H155.835L155.815 132.615ZM161.57 118.25H164.405V115.41H161.57V118.25Z" fill="#216869"/>
<path d="M118.57 109.665V89.625H138.605V109.665H118.57ZM121.445 92.5V106.805H135.745V92.5H121.445Z" fill="#216869"/>
<path d="M178.74 109.67H158.705V89.635H178.74V109.67ZM175.88 92.5H161.58V106.8H175.88V92.5Z" fill="#216869"/>
<path d="M118.575 129.755H138.615V149.795H118.575V129.755ZM135.75 132.63H121.445V146.935H135.75V132.63Z" fill="#216869"/>
<path d="M144.36 101.085V95.35H141.5V89.63H155.805V95.34H153V98.21H155.835V103.93H152.98V101.085H150.1V98.225H147.24V101.075H144.355L144.36 101.085ZM147.235 95.33H150.075V92.5H147.235V95.33Z" fill="#216869"/>
<path d="M132.89 115.41V118.275H138.615V121.135H130.03V126.865H118.58V121.165H121.415V124H127.165V115.41H132.895H132.89Z" fill="#216869"/>
<path d="M144.355 141.21V144.075H147.22V146.935H150.075V149.8H141.5V141.215H144.345L144.355 141.21Z" fill="#216869"/>
<path d="M127.165 115.41H121.435V118.265H118.58V112.565H127.155V115.415L127.165 115.41Z" fill="#216869"/>
<path d="M178.74 121.135H175.9V115.42H173.04V112.56H178.74V121.135Z" fill="#216869"/>
<path d="M132.895 115.42V112.565H138.61V115.41H132.89L132.895 115.42Z" fill="#216869"/>
<path d="M173.03 126.885V124.03H175.875V126.875H173L173.03 126.885Z" fill="#216869"/>
<path d="M175.905 129.76H178.74V132.6H175.905V129.76Z" fill="#216869"/>
<path d="M152.96 109.685V106.83H155.81V109.675H152.955L152.96 109.685Z" fill="#216869"/>
<path d="M144.365 135.5H141.5V132.64H144.345V135.5H144.365Z" fill="#216869"/>
<path d="M173.03 138.35V135.5H175.875V138.345H173.03V138.35Z" fill="#216869"/>
<path d="M170.155 118.285H173V121.145H170.155V118.27V118.285Z" fill="#216869"/>
<path d="M155.81 146.935H152.97V144.1H155.81V146.935Z" fill="#216869"/>
<path d="M161.555 146.94V149.795H158.71V146.95H161.565L161.555 146.94Z" fill="#216869"/>
<path d="M178.74 149.805H175.905V146.965H178.74V149.805Z" fill="#216869"/>
<path d="M155.83 124H153V121.155H155.85V124H155.83Z" fill="#216869"/>
<path d="M132.875 103.935H124.305V95.365H132.875V103.935Z" fill="#216869"/>
<path d="M164.435 103.93V95.36H173V103.93H164.435Z" fill="#216869"/>
<path d="M124.305 144.065V135.5H132.875V144.07L124.305 144.065Z" fill="#216869"/>
<path d="M126.895 82.835H114.345V96.68" stroke="#49A078" stroke-width="2" stroke-miterlimit="10"/>
<path d="M172.535 82.835H185.08V96.68" stroke="#49A078" stroke-width="2" stroke-miterlimit="10"/>
<path d="M126.895 155.745H114.345V141.9" stroke="#49A078" stroke-width="2" stroke-miterlimit="10"/>
<path d="M172.535 155.745H185.08V141.9" stroke="#49A078" stroke-width="2" stroke-miterlimit="10"/>
<path d="M88.71 85.835H84.545C83.8077 85.835 83.21 86.4327 83.21 87.17V98.835C83.21 99.5723 83.8077 100.17 84.545 100.17H88.71C89.4473 100.17 90.045 99.5723 90.045 98.835V87.17C90.045 86.4327 89.4473 85.835 88.71 85.835Z" fill="#216869" stroke="#216869" stroke-miterlimit="10"/>
<path d="M89.435 87.1H83.81V98.9H89.435V87.1Z" fill="white" stroke="#216869" stroke-miterlimit="10"/>
<path d="M28.83 156.085C30.8361 156.074 32.7995 155.504 34.5 154.44C34.39 157.63 34.305 160.045 34.305 160.045C34.305 160.045 34.855 161.005 35.13 161.42C35.405 161.835 37.74 163.205 38.015 164.445C38.29 165.685 39.515 166.37 39.39 168.155C39.265 169.94 37.74 168.015 38.015 168.43C38.29 168.845 39.115 170.215 39.115 171.455C39.115 172.695 36.505 172.69 35.54 171.865C34.575 171.04 31.42 169.115 31.145 167.33L30.07 163.33L28.83 156.085Z" fill="white" stroke="#216869" stroke-miterlimit="10"/>
<path d="M34.54 166L35.21 169C35.21 169 37.375 170.665 37.54 171.835" fill="white"/>
<path d="M34.54 166L35.21 169C35.21 169 37.375 170.665 37.54 171.835" stroke="#216869" stroke-miterlimit="10"/>
<path d="M38.01 168.43L37.04 166.5" stroke="#216869" stroke-miterlimit="10"/>
<path d="M45.345 229.385C45.345 229.385 44.56 235.82 45.17 236.605C45.514 237.099 45.9519 237.521 46.459 237.846C46.966 238.172 47.5321 238.394 48.125 238.5C49.515 238.675 51.865 237.89 51.865 237.89C53.451 238.316 55.0987 238.463 56.735 238.325C59.235 238.065 60.905 237.11 61.08 235.89C61.255 234.67 59.08 234.155 57.865 232.85C56.65 231.545 54.71 229.235 54.71 229.235L54.21 227.545C54.21 227.545 51.255 229.045 49.345 229.11C48.2648 229.175 47.1809 229.087 46.125 228.85L45.345 229.385Z" fill="white" stroke="#216869" stroke-miterlimit="10"/>
<path d="M61.08 235.905C61.0998 235.762 61.0861 235.617 61.04 235.48C60.465 235.72 59.73 236.01 58.82 236.34C56.21 237.3 54.905 236.515 53.605 236.515C52.305 236.515 52.21 237.905 48.56 236.95C46.175 236.325 45.28 235.52 44.94 235.03C44.8921 235.566 44.9709 236.105 45.17 236.605C45.5139 237.099 45.9519 237.521 46.459 237.846C46.966 238.172 47.5321 238.394 48.125 238.5C49.515 238.675 51.865 237.89 51.865 237.89C53.451 238.316 55.0987 238.463 56.735 238.325C59.255 238.08 60.905 237.125 61.08 235.905Z" fill="white" stroke="#216869" stroke-miterlimit="10"/>
<path d="M40.71 149.5C40.71 149.5 37.21 161.25 38.46 169.5C39.71 177.75 45.71 193.25 45.71 193.25C45.71 193.25 44.96 199 44.96 201C44.96 203 43.21 206.75 44.46 210.75C45.71 214.75 45.71 225.25 45.71 226C45.71 226.75 45.21 230.75 45.21 230.75C45.21 230.75 46.21 232.25 49.96 232.25C53.71 232.25 54.71 229.25 54.71 229.25C54.71 229.25 58.46 207 58.46 203.5C58.46 200 62.46 187 63.96 181.75C64.9631 178.136 66.4162 174.662 68.285 171.41C69.285 169.66 68.71 148.5 68.71 148.5L40.21 146L40.71 149.5Z" fill="#7C7A80" stroke="#216869" stroke-miterlimit="10"/>
<path d="M60.385 231.04C60.385 231.04 64.125 232.515 65.95 233.385C67.775 234.255 68.99 234.34 68.99 235.735C68.99 237.13 65.69 238.515 63.69 238.865C61.69 239.215 58.47 239.125 58.125 239.21C57.78 239.295 51.255 240.255 50.475 238.6C49.695 236.945 50.56 231.3 50.56 231.3C53.8205 231.857 57.1585 231.768 60.385 231.04Z" fill="white" stroke="#216869" stroke-miterlimit="10"/>
<path d="M58.125 239.21C58.47 239.125 61.69 239.21 63.69 238.865C65.69 238.52 68.99 237.125 68.99 235.735C68.9912 235.552 68.9643 235.37 68.91 235.195C68.0658 235.687 67.1925 236.128 66.295 236.515C63.86 237.56 60.645 238.255 55.795 238.17C53.9157 238.166 52.0444 237.926 50.225 237.455C50.2528 237.849 50.344 238.235 50.495 238.6C51.255 240.255 57.775 239.3 58.125 239.21Z" fill="white" stroke="#216869" stroke-miterlimit="10"/>
<path d="M68.96 150.5C68.96 150.5 70.46 170.75 67.46 186C64.46 201.25 59.46 222 59.21 223C58.96 224 60.96 226.75 60.96 226.75V230.75C60.96 230.75 59.21 232.5 55.21 233C51.21 233.5 49.96 232.25 49.96 232.25C49.96 232.25 48.96 225.5 48.96 220.75C48.96 216 49.96 199.75 49.96 199.75C49.96 199.75 52.21 183.25 51.96 180.75C51.71 178.25 50.96 170.5 50.96 170.5L46.96 165.75" fill="#7C7A80"/>
<path d="M68.96 150.5C68.96 150.5 70.46 170.75 67.46 186C64.46 201.25 59.46 222 59.21 223C58.96 224 60.96 226.75 60.96 226.75V230.75C60.96 230.75 59.21 232.5 55.21 233C51.21 233.5 49.96 232.25 49.96 232.25C49.96 232.25 48.96 225.5 48.96 220.75C48.96 216 49.96 199.75 49.96 199.75C49.96 199.75 52.21 183.25 51.96 180.75C51.71 178.25 50.96 170.5 50.96 170.5L46.96 165.75" stroke="#216869" stroke-miterlimit="10"/>
<path d="M26.935 146.69L34.8 145.31C34.765 146.375 34.99 139.645 34.99 139.145C34.99 138.045 37.6 131.145 37.6 131.145C37.6 131.145 39.66 140.085 39.66 141.185C39.66 142.285 38.835 150.685 39.935 151.77C41.035 152.855 44.885 155.07 53.41 154.795C61.935 154.52 68.26 153.83 69.91 152.18C71.56 150.53 69.635 145.445 69.495 144.76C69.355 144.075 71.695 126.06 71.695 126.06C71.695 126.06 80.905 135.685 86.405 134.31C91.905 132.935 89.295 111.5 89.295 111.5L89.57 105.315C89.57 105.315 91.355 100.78 91.355 100.09C91.355 99.4 89.57 94.455 89.57 94.455C89.57 94.455 88.47 93.49 87.78 95.83C87.3933 97.0868 87.1173 98.3751 86.955 99.68C86.955 99.68 85.305 100.915 85.455 102.705C85.5376 103.785 85.768 104.848 86.14 105.865L82.42 118C82.42 118 78.295 113.325 78.02 112.5C77.745 111.675 77.88 108.65 74.445 106.86C71.01 105.07 63.995 104.935 63.995 104.935L44.61 105.075C44.61 105.075 35.535 105.875 33.5 107.66C31.465 109.445 25.115 132.135 25.115 135.57C25.115 136.645 25.675 139.975 26.46 144.095L26.935 146.69Z" fill="white" stroke="#216869" stroke-miterlimit="10"/>
<path d="M89.57 94.465C89.57 94.465 89.155 97.9 89.43 98.59C89.8243 99.7854 89.9188 101.059 89.705 102.3" stroke="#216869" stroke-miterlimit="10"/>
<path d="M86.405 134.335C91.905 132.96 89.295 111.51 89.295 111.51L89.355 110.125C88.754 109.669 88.0572 109.357 87.3174 109.21C86.5776 109.064 85.8142 109.088 85.085 109.28L82.42 118C82.42 118 78.295 113.325 78.02 112.5C77.745 111.675 77.88 108.65 74.445 106.86C71.01 105.07 63.995 104.935 63.995 104.935L44.61 105.075C44.61 105.075 35.535 105.875 33.5 107.66C31.465 109.445 25.115 132.135 25.115 135.57C25.115 137.61 27.145 147.78 28.855 156.07C30.8511 156.059 32.8051 155.495 34.5 154.44C34.7 148.495 35 139.86 35 139.145C35 138.045 37.61 131.145 37.61 131.145C37.61 131.145 39.67 140.085 39.67 141.185C39.67 142.285 38.845 150.685 39.945 151.77C41.045 152.855 44.895 155.07 53.42 154.795C61.945 154.52 68.27 153.83 69.92 152.18C71.57 150.53 69.645 145.445 69.505 144.76C69.365 144.075 71.705 126.06 71.705 126.06C71.705 126.06 80.905 135.71 86.405 134.335Z" fill="#49A078" stroke="#216869" stroke-miterlimit="10"/>
<path d="M34.9 123.605L37.6 131.17L32.04 121.665" stroke="#216869" stroke-miterlimit="10"/>
<path d="M33.375 119.335L34.33 122.01" stroke="#216869" stroke-miterlimit="10"/>
<path d="M52.415 124.14C53.63 126.87 55.415 130.295 57.54 132.5" stroke="#216869" stroke-miterlimit="10"/>
<path d="M50.71 119.835C50.71 119.835 51.085 120.96 51.755 122.595" stroke="#216869" stroke-miterlimit="10"/>
<path d="M53.71 129C53.71 129 56.71 135 58.21 136.165" stroke="#216869" stroke-miterlimit="10"/>
<path d="M76.4 121.725L77.54 120.665" stroke="#216869" stroke-miterlimit="10"/>
<path d="M74.54 120.165L71.695 126.085L75.365 122.685" stroke="#216869" stroke-miterlimit="10"/>
<path d="M87.54 123.5C87.375 122.335 82.42 117.975 82.42 117.975C82.42 117.975 87.54 120 88.875 121.835" stroke="#216869" stroke-miterlimit="10"/>
<path d="M65.92 86.9C65.92 86.9 66.195 90.34 66.61 90.9C67.025 91.46 67.295 95.71 66.61 96.95C65.925 98.19 65.51 99.7 65.11 100.11C64.71 100.52 63.185 100.525 62.61 100.525C62.035 100.525 55.875 100.25 55.875 100.25L56.015 91.585C56.015 91.585 57.535 85.115 65.92 86.9Z" fill="white" stroke="#216869" stroke-miterlimit="10"/>
<path d="M54.925 77.28C54.925 77.28 49.285 79.065 48.05 84C46.815 88.935 50.8 94.585 50.8 94.585C50.8 94.585 51.9 98.585 52.86 99.4C53.82 100.215 57.67 99.4 58.91 99.125C60.15 98.85 62.91 91.425 62.91 91.425C62.91 91.425 62.91 93.21 63.735 93.21C64.56 93.21 64.425 90.875 64.425 90.46C64.425 90.045 68.275 87.16 68.275 82.215C68.275 77.27 64 75.08 60 75.355C56 75.63 54.925 77.28 54.925 77.28Z" fill="#216869" stroke="#216869" stroke-miterlimit="10"/>
<path d="M66.61 104.635C66.61 104.635 65.785 101.75 65.37 101.34C64.955 100.93 62.345 99.275 58.085 99C53.825 98.725 47.5 98.865 46.95 99.14C46.4 99.415 46.26 101.75 46.26 101.75C46.26 101.75 44.475 103.4 44.06 104.365C43.645 105.33 43.235 105.735 47.06 108.9C50.885 112.065 52.975 113.3 56.96 112.335C60.945 111.37 66.72 105.6 66.72 105.6L66.61 104.635Z" fill="#49A078" stroke="#216869" stroke-miterlimit="10"/>
<path d="M56.775 106.585C59.4812 105.66 62.0849 104.459 64.545 103" stroke="#216869" stroke-miterlimit="10"/>
<path d="M46.26 102.3C46.26 102.3 48.76 107.25 53.135 107.25C53.7313 107.243 54.3257 107.179 54.91 107.06" stroke="#216869" stroke-miterlimit="10"/>
</svg>
