<svg width="250" height="250" viewBox="0 0 250 250" fill="none" xmlns="http://www.w3.org/2000/svg">
<path d="M39 123.16C39.3055 122.812 39.6769 122.528 40.0929 122.324C40.5089 122.121 40.9611 122.002 41.4234 121.975C41.8857 121.947 42.3488 122.012 42.786 122.165C43.2231 122.317 43.6256 122.556 43.97 122.865C44.2259 123.092 44.4451 123.356 44.62 123.65C45.0857 123.255 45.6467 122.988 46.2473 122.877C46.8478 122.766 47.467 122.814 48.0433 123.016C48.6196 123.218 49.133 123.568 49.5324 124.03C49.9318 124.492 50.2033 125.051 50.32 125.65C49.8719 125.117 49.2979 124.704 48.65 124.449C48.0021 124.194 47.3009 124.105 46.6097 124.189C45.9186 124.274 45.2595 124.529 44.692 124.933C44.1246 125.336 43.6667 125.875 43.36 126.5C43.3378 126.299 43.3378 126.096 43.36 125.895C43.4292 125.413 43.5996 124.951 43.86 124.54C43.7475 124.403 43.6256 124.275 43.495 124.155C42.8403 123.577 42.0213 123.218 41.1526 123.129C40.284 123.039 39.409 123.223 38.65 123.655C38.7493 123.478 38.8666 123.312 39 123.16Z" fill="#E0E0E0"/>
<path d="M75.63 117.09C75.3509 116.771 75.0004 116.522 74.607 116.364C74.2136 116.206 73.7884 116.142 73.3661 116.179C72.9437 116.216 72.536 116.353 72.1761 116.577C71.8162 116.801 71.5144 117.107 71.295 117.47C70.9344 117.167 70.501 116.964 70.0376 116.88C69.5743 116.796 69.097 116.834 68.653 116.991C68.2091 117.148 67.8138 117.419 67.5064 117.775C67.1989 118.132 66.9899 118.563 66.9 119.025C67.4214 118.404 68.1563 118.001 68.96 117.895C69.6276 117.806 70.3063 117.929 70.9001 118.247C71.494 118.564 71.9732 119.06 72.27 119.665C72.2874 119.512 72.2874 119.358 72.27 119.205C72.2215 118.834 72.0973 118.476 71.905 118.155C71.9904 118.049 72.0841 117.951 72.185 117.86C72.6884 117.412 73.3192 117.134 73.9891 117.063C74.659 116.992 75.3342 117.133 75.92 117.465C75.836 117.331 75.7388 117.205 75.63 117.09Z" fill="#E0E0E0"/>
<path d="M34.09 136.825C33.69 136.27 31.905 136.49 31.33 136.6C30.787 136.703 30.2726 136.922 29.8216 137.242C29.3705 137.561 28.9933 137.974 28.7155 138.452C28.4377 138.93 28.2658 139.462 28.2114 140.012C28.1569 140.562 28.2213 141.117 28.4 141.64C27.8171 141.504 27.2075 141.539 26.644 141.741C26.0805 141.942 25.5871 142.302 25.2226 142.777C24.8581 143.251 24.6381 143.821 24.5889 144.418C24.5397 145.014 24.6633 145.612 24.945 146.14C22.675 145.64 19.195 146.025 17.445 147.745C16.445 148.685 16.1 150.305 16.835 151.44C16.7 151.23 14.915 151.21 13.445 152.12C13.0013 152.418 12.6342 152.816 12.3735 153.283C12.1129 153.749 11.9661 154.271 11.945 154.805C11.885 155.995 12.445 157.61 12.99 158.185C12.875 157.96 11.49 158.915 11.375 159.03C10.9261 159.436 10.5931 159.953 10.41 160.53C10.34 160.791 10.3267 161.063 10.3711 161.329C10.4155 161.595 10.5164 161.849 10.6671 162.072C10.8179 162.296 11.0149 162.485 11.2448 162.626C11.4747 162.767 11.7323 162.857 12 162.89C11.0863 163.252 10.2976 163.873 9.73001 164.675C9.45126 165.077 9.28129 165.544 9.23661 166.031C9.19192 166.519 9.27405 167.009 9.47501 167.455C10.065 168.6 11.475 169.02 12.71 169.33C12.3195 169.749 12.0357 170.256 11.8825 170.807C11.7293 171.359 11.7113 171.94 11.83 172.5C11.9681 173.051 12.2926 173.536 12.7484 173.874C13.2042 174.213 13.7631 174.382 14.33 174.355C13.7239 174.738 13.2546 175.303 12.9897 175.969C12.7248 176.635 12.6779 177.368 12.8557 178.062C13.0335 178.757 13.4268 179.377 13.9792 179.834C14.5316 180.291 15.2145 180.561 15.93 180.605C15.3 180.57 14.825 181.88 14.665 182.3C14.375 183.05 13.98 183.59 13.6 184.35H10.5C7.28501 184.35 5.45001 180.485 7.64501 178.14C7.73501 178.05 7.82501 177.96 7.92501 177.87C4.19001 176.405 4.42501 171.09 6.71001 169.995C3.22501 167.5 3.25001 161.13 7.64501 159.76C4.61001 156.72 5.53001 150.17 9.92501 149.76C8.85001 147.075 9.38001 143.4 12.83 142.72C11.735 139.425 14.785 137.145 17.83 138.325C17.965 134.855 22.88 134.655 23.99 137.1C23.93 135.755 25.94 133.265 27.23 133.26C25 131.515 25.62 128.02 27.53 127.555C24.93 125.555 26.32 121.055 29.43 121.12C27.775 118.51 30.235 115.815 32.705 115.32C31.81 116.32 30.995 117.645 31.645 119.02C32.23 120.245 33.81 120.46 34.86 120.975C32.36 121.82 31.225 124.32 33.075 126.51C30.54 126.83 30.21 130.205 31.225 131.575C31.855 131.035 33.15 130.915 34.095 131.075C35.365 131.315 36.055 131.96 37.2 133.235C34.95 131.5 32.655 134.855 34.09 136.825Z" fill="#E0E0E0"/>
<path d="M211.56 123.16C211.255 122.812 210.883 122.528 210.467 122.324C210.051 122.121 209.599 122.002 209.137 121.975C208.674 121.947 208.211 122.012 207.774 122.165C207.337 122.317 206.934 122.556 206.59 122.865C206.337 123.094 206.118 123.359 205.94 123.65C205.474 123.255 204.913 122.988 204.313 122.877C203.712 122.766 203.093 122.814 202.517 123.016C201.94 123.218 201.427 123.568 201.028 124.03C200.628 124.492 200.357 125.051 200.24 125.65C200.918 124.847 201.869 124.325 202.91 124.185C203.776 124.071 204.657 124.232 205.427 124.645C206.198 125.057 206.819 125.701 207.205 126.485C207.227 126.284 207.227 126.081 207.205 125.88C207.143 125.4 206.982 124.938 206.73 124.525C206.841 124.387 206.963 124.258 207.095 124.14C207.75 123.562 208.569 123.203 209.437 123.114C210.306 123.024 211.181 123.208 211.94 123.64C211.83 123.467 211.703 123.306 211.56 123.16Z" fill="#E0E0E0"/>
<path d="M174.935 117.09C175.414 116.552 176.087 116.227 176.806 116.185C177.525 116.143 178.231 116.387 178.77 116.865C178.968 117.039 179.136 117.243 179.27 117.47C179.631 117.167 180.065 116.964 180.528 116.88C180.992 116.796 181.47 116.835 181.914 116.992C182.358 117.149 182.754 117.419 183.062 117.775C183.37 118.132 183.579 118.563 183.67 119.025C183.148 118.405 182.413 118.003 181.61 117.895C180.942 117.807 180.263 117.93 179.668 118.247C179.073 118.565 178.593 119.061 178.295 119.665C178.28 119.512 178.28 119.358 178.295 119.205C178.343 118.833 178.469 118.475 178.665 118.155C178.578 118.051 178.485 117.952 178.385 117.86C177.881 117.413 177.249 117.134 176.578 117.063C175.908 116.992 175.232 117.133 174.645 117.465C174.729 117.331 174.826 117.205 174.935 117.09Z" fill="#E0E0E0"/>
<path d="M216.5 136.825C216.9 136.27 218.685 136.49 219.255 136.6C219.798 136.703 220.313 136.921 220.765 137.241C221.217 137.56 221.594 137.972 221.873 138.45C222.151 138.928 222.323 139.46 222.378 140.011C222.433 140.561 222.369 141.117 222.19 141.64C222.773 141.504 223.383 141.539 223.946 141.741C224.509 141.942 225.003 142.302 225.367 142.777C225.732 143.251 225.952 143.821 226.001 144.418C226.05 145.014 225.927 145.612 225.645 146.14C227.91 145.64 231.395 146.025 233.17 147.745C234.14 148.685 234.515 150.305 233.775 151.44C233.915 151.23 235.7 151.21 237.17 152.12C237.614 152.418 237.981 152.816 238.242 153.283C238.503 153.749 238.649 154.271 238.67 154.805C238.73 155.995 238.17 157.61 237.63 158.185C237.745 157.96 239.13 158.915 239.245 159.03C239.691 159.438 240.023 159.955 240.21 160.53C240.278 160.794 240.289 161.07 240.241 161.339C240.192 161.608 240.086 161.863 239.93 162.086C239.774 162.31 239.571 162.497 239.335 162.635C239.099 162.773 238.837 162.858 238.565 162.885C239.478 163.249 240.266 163.869 240.835 164.67C241.113 165.072 241.283 165.54 241.327 166.027C241.37 166.514 241.287 167.005 241.085 167.45C240.495 168.595 239.085 169.015 237.855 169.325C238.246 169.742 238.53 170.246 238.685 170.797C238.839 171.347 238.858 171.926 238.74 172.485C238.604 173.036 238.28 173.523 237.823 173.862C237.367 174.2 236.807 174.369 236.24 174.34C236.846 174.723 237.316 175.288 237.58 175.955C237.845 176.621 237.892 177.355 237.713 178.049C237.535 178.744 237.141 179.364 236.588 179.821C236.035 180.277 235.351 180.547 234.635 180.59C235.27 180.555 235.745 181.865 235.905 182.285C236.195 183.035 236.59 183.575 236.965 184.335H240.11C243.325 184.335 245.165 180.47 242.965 178.125C242.88 178.035 242.785 177.945 242.69 177.855C246.425 176.39 246.19 171.075 243.905 169.98C247.365 167.515 247.34 161.125 242.945 159.755C245.98 156.715 245.06 150.165 240.66 149.755C241.74 147.07 241.21 143.395 237.76 142.715C238.85 139.42 235.805 137.14 232.76 138.32C232.63 134.85 227.71 134.65 226.605 137.095C226.665 135.75 224.65 133.26 223.36 133.255C225.59 131.51 224.975 128.015 223.065 127.55C225.665 125.55 224.27 121.05 221.165 121.115C222.82 118.505 220.355 115.81 217.89 115.315C218.785 116.315 219.6 117.64 218.95 119.015C218.365 120.24 216.785 120.455 215.735 120.97C218.235 121.815 219.37 124.315 217.515 126.505C220.055 126.825 220.38 130.2 219.365 131.57C218.74 131.03 217.445 130.91 216.5 131.07C215.225 131.31 214.54 131.955 213.395 133.23C215.62 131.5 217.91 134.855 216.5 136.825Z" fill="#E0E0E0"/>
<path d="M43.295 135.75C-1.825 160.25 -1.825 200 43.3 224.5C88.425 249 161.58 249 206.705 224.5C251.83 200 251.825 160.27 206.705 135.77C161.585 111.27 88.42 111.245 43.295 135.75Z" fill="#FAFAFA"/>
<path d="M125.765 36.19C125.284 36.0144 124.777 35.9214 124.265 35.915C123.765 35.88 123.625 35.78 123.535 35.68C123.074 35.0132 122.398 34.5242 121.62 34.2941C120.843 34.064 120.01 34.1067 119.26 34.415C119.05 33.7616 118.601 33.2112 118.004 32.8731C117.406 32.535 116.704 32.434 116.035 32.59C116.085 31.09 114.17 29.475 112.445 29.09C110.72 28.705 109.35 28.89 108.405 29.975C107.405 28 103.435 27.445 101.295 28.475C100.06 29.075 99.015 29.69 98.505 30.82C98.1677 31.5187 98.008 32.2898 98.04 33.065C97.205 32.33 95.54 32.13 94.42 32.565C93.215 33.03 93.125 33.935 93.065 34.86C92.3515 34.6525 91.5956 34.6387 90.875 34.82C90.12 35.045 89.685 35.64 89.785 36.12C89.19 36.085 87.76 36.57 87.925 37.205C88.11 37.915 89.74 37.84 90.35 37.82C90.9243 37.7726 91.4942 37.6824 92.055 37.55C92.3377 37.6583 92.6373 37.7158 92.94 37.72C93.98 37.72 94.415 37.27 94.585 36.88C95.085 37.95 96.895 38.76 98.17 39.09C100.57 39.7 103.965 39.325 105.445 37.535C105.62 37.8715 105.864 38.1678 106.16 38.405C106.795 38.917 107.568 39.23 108.38 39.305C109.38 39.395 112.01 39.525 112.76 37.955C113.285 39 115.64 39.455 117.43 39.22C118.122 39.1126 118.795 38.909 119.43 38.615C119.826 38.4049 120.21 38.1728 120.58 37.92C120.725 37.8181 120.894 37.7581 121.071 37.7467C121.247 37.7352 121.424 37.7727 121.58 37.855C122.845 38.3026 124.225 38.3026 125.49 37.855C126.5 37.455 126.705 36.615 125.765 36.19Z" fill="#F0F0F0"/>
<path d="M153.97 50.37C153.604 50.2308 153.216 50.158 152.825 50.155C152.45 50.125 152.325 50.055 152.265 49.975C151.912 49.4574 151.393 49.076 150.794 48.8941C150.194 48.7122 149.551 48.7408 148.97 48.975C148.809 48.4675 148.461 48.0402 147.997 47.7793C147.533 47.5185 146.987 47.4437 146.47 47.57C146.51 46.415 145.035 45.175 143.705 44.89C142.375 44.605 141.325 44.735 140.6 45.57C139.82 44.07 136.775 43.625 135.125 44.425C134.175 44.89 133.37 45.365 132.98 46.23C132.72 46.7684 132.596 47.3625 132.62 47.96C132.221 47.6759 131.76 47.4921 131.275 47.4243C130.79 47.3564 130.296 47.4064 129.835 47.57C128.91 47.93 128.835 48.63 128.795 49.335C128.246 49.1784 127.665 49.1681 127.11 49.305C126.525 49.48 126.19 49.935 126.27 50.305C125.81 50.305 124.71 50.655 124.835 51.14C124.96 51.625 126.23 51.64 126.7 51.64C127.143 51.6033 127.582 51.5348 128.015 51.435C128.232 51.5176 128.463 51.5615 128.695 51.565C129.495 51.565 129.835 51.215 129.96 50.92C130.35 51.74 131.74 52.365 132.72 52.615C134.57 53.115 137.18 52.8 138.32 51.42C138.454 51.6799 138.641 51.9083 138.87 52.09C139.358 52.4867 139.954 52.7287 140.58 52.785C141.34 52.855 143.375 52.95 143.95 51.745C144.355 52.545 146.17 52.915 147.545 52.715C148.08 52.6363 148.6 52.4796 149.09 52.25C149.396 52.0897 149.693 51.9127 149.98 51.72C150.089 51.6437 150.217 51.5983 150.35 51.5887C150.483 51.579 150.616 51.6054 150.735 51.665C151.706 52.0082 152.764 52.0082 153.735 51.665C154.535 51.34 154.695 50.695 153.97 50.37Z" fill="#F5F5F5"/>
<path d="M238.895 63.42C238.528 63.2851 238.141 63.214 237.75 63.21C237.375 63.18 237.25 63.105 237.185 63.025C236.833 62.5078 236.315 62.1266 235.716 61.9447C235.118 61.7627 234.475 61.7911 233.895 62.025C233.733 61.5185 233.385 61.0922 232.921 60.8324C232.457 60.5725 231.912 60.4984 231.395 60.625C231.435 59.47 229.96 58.225 228.63 57.94C227.3 57.655 226.25 57.785 225.525 58.62C224.745 57.12 221.7 56.675 220.05 57.48C219.1 57.94 218.295 58.415 217.905 59.285C217.645 59.8216 217.521 60.4141 217.545 61.01C217.146 60.7256 216.685 60.542 216.2 60.4749C215.715 60.4079 215.221 60.4594 214.76 60.625C213.835 60.98 213.76 61.68 213.715 62.39C213.168 62.2308 212.588 62.2204 212.035 62.36C211.45 62.53 211.115 62.99 211.195 63.36C210.73 63.36 209.635 63.705 209.76 64.195C209.885 64.685 211.155 64.695 211.625 64.67C212.066 64.6342 212.504 64.564 212.935 64.46C213.153 64.5448 213.386 64.5888 213.62 64.59C214.42 64.59 214.755 64.245 214.885 63.945C215.275 64.765 216.665 65.39 217.645 65.645C219.49 66.115 222.105 65.83 223.245 64.445C223.38 64.7055 223.567 64.9354 223.795 65.12C224.285 65.5131 224.88 65.7531 225.505 65.81C226.265 65.88 228.3 65.98 228.875 64.77C229.28 65.575 231.09 65.94 232.47 65.745C233.004 65.6616 233.524 65.5051 234.015 65.28C234.32 65.118 234.615 64.9394 234.9 64.745C235.011 64.6696 235.14 64.6251 235.273 64.6163C235.407 64.6076 235.54 64.6347 235.66 64.695C236.631 65.0381 237.689 65.0381 238.66 64.695C239.46 64.395 239.62 63.75 238.895 63.42Z" fill="#F5F5F5"/>
<path d="M40.235 82.225C39.8665 82.0896 39.4776 82.0186 39.085 82.015C38.715 81.985 38.585 81.91 38.525 81.83C38.1683 81.3188 37.6481 80.9442 37.0502 80.7679C36.4522 80.5916 35.8121 80.6241 35.235 80.86C35.073 80.3532 34.7251 79.9266 34.2613 79.6659C33.7975 79.4053 33.2521 79.3299 32.735 79.455C32.775 78.3 31.295 77.055 29.97 76.775C28.645 76.495 27.585 76.615 26.86 77.455C26.085 75.955 23.035 75.51 21.385 76.31C20.44 76.775 19.635 77.245 19.24 78.115C18.9809 78.6536 18.8589 79.2479 18.885 79.845C18.4858 79.5601 18.0236 79.3759 17.5378 79.3079C17.0521 79.24 16.5571 79.2905 16.095 79.455C15.17 79.815 15.095 80.51 15.055 81.22C14.5059 81.0608 13.9244 81.0505 13.37 81.19C12.79 81.365 12.45 81.82 12.53 82.19C12.07 82.19 10.97 82.54 11.1 83.025C11.23 83.51 12.5 83.5 13 83.5C13.441 83.4633 13.8788 83.3947 14.31 83.295C14.5298 83.375 14.7612 83.4189 14.995 83.425C15.79 83.425 16.13 83.075 16.26 82.775C16.65 83.6 18.035 84.225 19.02 84.475C20.865 84.975 23.48 84.66 24.62 83.28C24.7505 83.542 24.9385 83.771 25.17 83.95C25.6584 84.3421 26.2513 84.5821 26.875 84.64C27.635 84.715 29.675 84.81 30.245 83.605C30.65 84.405 32.465 84.77 33.845 84.575C34.3785 84.497 34.8975 84.3403 35.385 84.11C35.6907 83.9489 35.9877 83.772 36.275 83.58C36.3838 83.5027 36.5117 83.4567 36.6448 83.447C36.7779 83.4373 36.9112 83.4643 37.03 83.525C38.0006 83.8681 39.0595 83.8681 40.03 83.525C40.795 83.2 40.955 82.555 40.235 82.225Z" fill="#F5F5F5"/>
<path d="M51.32 189.335C51.2909 189.321 51.2657 189.3 51.2465 189.274C51.2273 189.247 51.2148 189.217 51.21 189.185C49.43 180.275 41.085 174.58 37.525 172.145C36.95 171.75 36.495 171.44 36.2 171.205C35.579 170.759 35.0844 170.16 34.7645 169.466C34.4446 168.772 34.3104 168.007 34.375 167.245C34.4717 166.581 34.7416 165.954 35.1577 165.427C35.5737 164.901 36.1212 164.493 36.745 164.245C40.045 162.775 45.845 166.44 49.955 172.585C55.715 181.205 54.18 188.175 54.16 188.245C54.1509 188.281 54.1334 188.314 54.1091 188.342C54.0848 188.37 54.0543 188.391 54.02 188.405L51.52 189.34C51.4919 189.345 51.4631 189.345 51.435 189.34C51.3971 189.351 51.3567 189.349 51.32 189.335ZM49.585 172.835C45.585 166.865 40.035 163.27 36.93 164.655C36.3762 164.868 35.889 165.224 35.5182 165.687C35.1474 166.15 34.9065 166.703 34.82 167.29C34.7684 167.979 34.8961 168.669 35.1905 169.294C35.4849 169.918 35.936 170.456 36.5 170.855C36.785 171.08 37.235 171.385 37.8 171.775C41.375 174.215 49.7 179.9 51.62 188.84L53.77 188.035C53.915 187.105 54.825 180.69 49.585 172.845V172.835Z" fill="#BCE08A"/>
<path d="M52.845 188.83H52.875C52.9046 188.827 52.9334 188.819 52.9597 188.805C52.9861 188.792 53.0094 188.773 53.0285 188.75C53.0476 188.727 53.0619 188.701 53.0708 188.673C53.0796 188.644 53.0827 188.615 53.08 188.585C52.16 178.06 43.815 168.71 38.705 167.14C38.6473 167.123 38.5851 167.129 38.5318 167.157C38.4786 167.185 38.4384 167.233 38.42 167.29C38.4028 167.347 38.409 167.409 38.4371 167.461C38.4652 167.513 38.513 167.553 38.57 167.57C43.63 169.12 51.76 178.645 52.635 188.625C52.6386 188.679 52.6621 188.73 52.7008 188.768C52.7395 188.805 52.7909 188.828 52.845 188.83Z" fill="#BCE08A"/>
<path d="M53.935 188.425C53.9662 188.432 53.9987 188.432 54.03 188.425L55.725 187.71C55.7594 187.696 55.7897 187.673 55.8133 187.644C55.8368 187.616 55.8529 187.582 55.86 187.545C55.86 187.445 57.91 177.08 54.2 163.8C52.31 157.035 47.585 150.74 42.965 148.83C40.74 147.915 38.66 147.99 36.78 149.06C36.3119 149.282 35.9014 149.609 35.5805 150.016C35.2596 150.423 35.037 150.898 34.93 151.405C34.475 154.04 37.535 157.565 40.775 161.3C43.04 163.915 45.38 166.615 46.58 169.095C46.6069 169.148 46.653 169.188 46.7089 169.208C46.7648 169.227 46.8261 169.224 46.88 169.2C46.907 169.188 46.9313 169.17 46.9513 169.148C46.9713 169.126 46.9867 169.1 46.9965 169.072C47.0063 169.044 47.0104 169.015 47.0084 168.985C47.0064 168.955 46.9984 168.926 46.985 168.9C45.76 166.365 43.395 163.64 41.115 161.005C37.945 157.355 34.955 153.905 35.37 151.48C35.4644 151.036 35.6608 150.62 35.9437 150.265C36.2266 149.91 36.5882 149.626 37 149.435C38.755 148.435 40.705 148.37 42.795 149.235C47.295 151.09 51.915 157.235 53.795 163.905C57.265 176.33 55.675 186.16 55.465 187.325L53.855 188C53.8008 188.024 53.758 188.068 53.7357 188.123C53.7133 188.178 53.7131 188.24 53.735 188.295C53.7528 188.333 53.781 188.366 53.8163 188.389C53.8517 188.412 53.8928 188.424 53.935 188.425Z" fill="#BCE08A"/>
<path d="M53.69 182C53.7195 181.999 53.7487 181.993 53.7757 181.981C53.8028 181.969 53.8272 181.952 53.8476 181.931C53.8681 181.909 53.8841 181.884 53.8948 181.856C53.9055 181.829 53.9107 181.8 53.91 181.77C53.51 165.375 43.07 153.32 40.15 151.37C40.1002 151.338 40.0397 151.327 39.9816 151.339C39.9236 151.351 39.8727 151.385 39.84 151.435C39.8231 151.459 39.8113 151.486 39.8052 151.515C39.7991 151.544 39.7988 151.574 39.8044 151.603C39.81 151.632 39.8214 151.659 39.8378 151.684C39.8542 151.708 39.8754 151.729 39.9 151.745C42.775 153.665 53.07 165.565 53.46 181.78C53.4637 181.839 53.4895 181.894 53.5321 181.935C53.5747 181.976 53.631 181.999 53.69 182Z" fill="#BCE08A"/>
<path d="M201.27 189.365C201.24 189.37 201.21 189.37 201.18 189.365L198.68 188.43C198.646 188.415 198.616 188.393 198.592 188.366C198.568 188.338 198.55 188.305 198.54 188.27C198.54 188.2 196.985 181.23 202.75 172.61C206.86 166.465 212.66 162.8 215.955 164.27C216.58 164.517 217.129 164.924 217.546 165.451C217.963 165.978 218.233 166.605 218.33 167.27C218.394 168.031 218.259 168.796 217.939 169.49C217.619 170.184 217.125 170.784 216.505 171.23C216.21 171.465 215.755 171.775 215.18 172.17C211.615 174.605 203.275 180.3 201.495 189.21C201.489 189.242 201.476 189.272 201.457 189.298C201.438 189.323 201.413 189.345 201.385 189.36C201.348 189.374 201.308 189.376 201.27 189.365ZM198.94 188.035L201.095 188.84C203.015 179.9 211.34 174.215 214.91 171.775C215.48 171.385 215.91 171.08 216.21 170.855C216.769 170.455 217.215 169.918 217.506 169.295C217.797 168.672 217.922 167.985 217.87 167.3C217.784 166.713 217.543 166.16 217.172 165.697C216.801 165.234 216.314 164.878 215.76 164.665C212.655 163.28 207.1 166.875 203.105 172.845C197.865 180.69 198.77 187.105 198.94 188.035Z" fill="#BCE08A"/>
<path d="M199.84 188.83H199.81C199.781 188.828 199.752 188.819 199.726 188.805C199.7 188.792 199.677 188.773 199.658 188.75C199.639 188.727 199.626 188.701 199.617 188.672C199.609 188.644 199.607 188.614 199.61 188.585C200.53 178.06 208.87 168.71 213.985 167.14C214.014 167.129 214.044 167.125 214.075 167.127C214.106 167.128 214.136 167.136 214.163 167.15C214.19 167.163 214.215 167.183 214.235 167.206C214.254 167.229 214.269 167.257 214.278 167.286C214.287 167.315 214.29 167.346 214.286 167.377C214.283 167.407 214.273 167.437 214.258 167.463C214.242 167.49 214.222 167.513 214.197 167.531C214.173 167.55 214.145 167.563 214.115 167.57C209.06 169.12 200.93 178.645 200.055 188.625C200.05 188.679 200.026 188.73 199.986 188.768C199.947 188.806 199.895 188.828 199.84 188.83Z" fill="#BCE08A"/>
<path d="M198.755 188.425C198.724 188.432 198.691 188.432 198.66 188.425L196.96 187.71C196.927 187.695 196.898 187.672 196.875 187.643C196.852 187.615 196.837 187.581 196.83 187.545C196.805 187.445 194.78 177.08 198.485 163.8C200.375 157.035 205.1 150.74 209.725 148.83C211.945 147.915 214.03 147.99 215.91 149.06C216.377 149.283 216.787 149.61 217.108 150.017C217.429 150.424 217.652 150.899 217.76 151.405C218.215 154.04 215.155 157.565 211.915 161.3C209.65 163.915 207.305 166.615 206.105 169.095C206.093 169.123 206.076 169.148 206.054 169.169C206.032 169.19 206.006 169.207 205.977 169.218C205.949 169.228 205.918 169.233 205.888 169.232C205.858 169.23 205.828 169.223 205.8 169.21C205.773 169.197 205.748 169.178 205.728 169.155C205.708 169.132 205.693 169.105 205.684 169.076C205.674 169.047 205.671 169.017 205.674 168.987C205.677 168.956 205.685 168.927 205.7 168.9C206.93 166.365 209.29 163.64 211.575 161.005C214.745 157.355 217.735 153.905 217.315 151.48C217.22 151.039 217.024 150.625 216.742 150.273C216.46 149.921 216.1 149.639 215.69 149.45C213.935 148.45 211.985 148.385 209.895 149.25C205.395 151.105 200.775 157.25 198.895 163.92C195.425 176.345 197.01 186.175 197.22 187.34L198.805 188.01C198.832 188.021 198.857 188.038 198.878 188.059C198.899 188.08 198.915 188.105 198.926 188.133C198.937 188.16 198.943 188.189 198.943 188.219C198.943 188.248 198.937 188.278 198.925 188.305C198.909 188.338 198.885 188.366 198.855 188.387C198.826 188.408 198.791 188.421 198.755 188.425Z" fill="#BCE08A"/>
<path d="M199 182C198.941 181.996 198.886 181.971 198.845 181.928C198.804 181.885 198.781 181.829 198.78 181.77C199.18 165.375 209.625 153.32 212.545 151.37C212.595 151.337 212.656 151.325 212.714 151.337C212.773 151.348 212.824 151.383 212.857 151.432C212.891 151.482 212.903 151.543 212.891 151.602C212.879 151.66 212.845 151.712 212.795 151.745C209.915 153.665 199.625 165.565 199.23 181.78C199.229 181.81 199.223 181.839 199.211 181.866C199.199 181.893 199.182 181.917 199.161 181.938C199.139 181.958 199.114 181.974 199.086 181.985C199.059 181.995 199.03 182.001 199 182Z" fill="#BCE08A"/>
<path d="M172.555 225.51C194.958 225.51 213.12 215.025 213.12 202.09C213.12 189.155 194.958 178.67 172.555 178.67C150.152 178.67 131.99 189.155 131.99 202.09C131.99 215.025 150.152 225.51 172.555 225.51Z" fill="#E0E0E0"/>
<path d="M80.045 225.51C102.448 225.51 120.61 215.025 120.61 202.09C120.61 189.155 102.448 178.67 80.045 178.67C57.6416 178.67 39.48 189.155 39.48 202.09C39.48 215.025 57.6416 225.51 80.045 225.51Z" fill="#E0E0E0"/>
<path d="M197.195 190.885C196.9 184.91 196.695 171.21 196.57 168.61C196.125 159.85 194.97 157.325 194.29 154.31C193.61 151.295 193.7 141.24 193.045 126.31C192.51 113.965 192.14 109.675 191.83 105.94H157.37C156.03 117.69 154.395 134.205 153.87 146.35C153.4 157.165 155.665 173.055 154.705 179.11C154.275 181.79 152.4 183.83 150.75 185.27C149.22 186.605 147.55 187.77 145.895 188.96C145.04 189.565 144.125 190.125 143.31 190.785C142.6 191.365 141.685 191.785 141.11 192.545C140.847 192.849 140.679 193.225 140.627 193.624C140.575 194.023 140.643 194.429 140.82 194.79C141.249 195.341 141.867 195.712 142.555 195.83C145.855 196.765 149.595 196.725 152.51 194.915C154.51 193.685 155.97 191.735 157.945 190.465C159.445 189.495 161.25 188.965 162.61 187.76C163.032 187.408 163.385 186.981 163.65 186.5C164.52 184.88 163.965 182.94 164.03 181.205C164.03 180.885 164.205 178.935 164.185 178.795C164.255 177.295 167.685 162.795 168.565 157.725C169.197 154.325 169.426 150.863 169.245 147.41L173.805 130.37C173.805 130.37 177.99 150.03 179.525 157.64C180.655 163.23 187.31 187.58 188.205 191.885C188.37 194.105 189.975 203.6 190.27 205.97C191.565 216.47 200.27 211.175 199.575 207.19C198.47 200.955 197.26 192.17 197.195 190.885Z" fill="#FFA8A7"/>
<path d="M139.31 195.035C139.15 195.035 138.98 196.87 139.88 197.605C140.915 198.455 143.92 199.79 147.79 199.105C151.66 198.42 153.715 197.08 155.22 195.665C156.725 194.25 158.835 192.255 160.58 191.78C162.2 191.335 164.825 190.28 165.325 189.72C165.825 189.16 165.665 186.86 165.665 186.86L139.31 195.035Z" fill="#263238"/>
<path d="M164.185 178.79C164.342 178.862 164.482 178.967 164.595 179.099C164.708 179.23 164.792 179.384 164.84 179.55C164.985 180.185 165.02 181 165.34 182.05C165.727 183.894 165.83 185.785 165.645 187.66C165.475 188.86 161.965 190.03 160.29 190.775C158.615 191.52 156.62 193.035 154.91 194.615C153.2 196.195 149.355 197.985 146.825 198.115C142.955 198.345 140.405 197.37 139.575 195.97C138.55 194.235 138.955 192.375 143.32 190.05C144.145 189.61 147.035 187.67 148.02 186.97C149.063 186.231 150.045 185.408 150.955 184.51C151.416 184.052 151.852 183.57 152.26 183.065C152.89 182.362 153.357 181.529 153.63 180.625C153.715 180.27 153.765 179.905 153.885 179.56C153.99 179.206 154.226 178.905 154.545 178.72C154.91 178.58 155.307 178.547 155.69 178.625C156.963 178.719 158.219 178.98 159.425 179.4C160.485 179.815 160.785 180.67 160.87 181.755C160.87 182.025 160.895 182.295 160.91 182.56C160.91 182.675 160.875 182.885 161.03 182.83C161.185 182.775 161.325 182.37 161.375 182.23C161.49 181.925 161.555 181.6 161.68 181.3C161.776 180.936 161.946 180.595 162.18 180.3C162.895 179.625 163.91 179.72 164.115 179.49C164.11 179.5 164.17 179 164.185 178.79Z" fill="#37474F"/>
<path d="M143.06 190.19C148.68 190.335 150.425 194.885 150.75 197.085C149.498 197.637 148.167 197.988 146.805 198.125C142.935 198.355 140.225 197.39 139.395 195.99C138.43 194.355 139.15 191.92 143.06 190.19Z" fill="#FAFAFA"/>
<path d="M151.305 190.925C151.369 190.925 151.43 190.9 151.475 190.855C151.53 190.804 151.563 190.735 151.568 190.66C151.572 190.586 151.548 190.512 151.5 190.455C150.68 189.505 148.075 187.5 146.045 187.82C145.978 187.838 145.92 187.88 145.882 187.938C145.843 187.996 145.828 188.067 145.838 188.135C145.847 188.204 145.882 188.267 145.935 188.312C145.988 188.357 146.055 188.381 146.125 188.38C148.02 188.085 150.44 190.08 151.09 190.835C151.116 190.866 151.15 190.89 151.187 190.905C151.224 190.921 151.265 190.928 151.305 190.925Z" fill="#F0F0F0"/>
<path d="M153.665 189.37C153.729 189.366 153.789 189.34 153.835 189.295C153.89 189.245 153.923 189.176 153.927 189.103C153.932 189.029 153.908 188.956 153.86 188.9C153.04 187.945 150.43 185.935 148.405 186.26C148.332 186.273 148.267 186.315 148.224 186.376C148.181 186.436 148.163 186.512 148.175 186.585C148.179 186.621 148.191 186.656 148.209 186.687C148.227 186.719 148.251 186.746 148.28 186.768C148.309 186.79 148.342 186.806 148.377 186.815C148.412 186.824 148.449 186.826 148.485 186.82C150.38 186.525 152.8 188.52 153.45 189.275C153.477 189.305 153.51 189.33 153.547 189.346C153.584 189.363 153.624 189.371 153.665 189.37Z" fill="#F0F0F0"/>
<path d="M155.835 187.61C155.898 187.609 155.959 187.584 156.005 187.54C156.06 187.489 156.093 187.42 156.098 187.345C156.102 187.271 156.078 187.197 156.03 187.14C155.21 186.19 152.595 184.185 150.575 184.505C150.502 184.517 150.437 184.558 150.394 184.618C150.351 184.678 150.333 184.752 150.345 184.825C150.349 184.861 150.361 184.896 150.379 184.927C150.397 184.959 150.421 184.986 150.45 185.008C150.479 185.03 150.512 185.046 150.547 185.055C150.582 185.064 150.619 185.066 150.655 185.06C152.55 184.77 154.97 186.765 155.62 187.52C155.646 187.551 155.68 187.575 155.717 187.59C155.754 187.606 155.795 187.613 155.835 187.61Z" fill="#F0F0F0"/>
<path d="M157.965 185.855C158.026 185.852 158.084 185.829 158.13 185.79C158.186 185.74 158.22 185.671 158.225 185.596C158.231 185.521 158.208 185.448 158.16 185.39C157.03 184.04 154.265 182.425 152.24 182.745C152.173 182.763 152.115 182.805 152.077 182.863C152.038 182.921 152.023 182.992 152.033 183.06C152.042 183.129 152.077 183.192 152.13 183.237C152.183 183.282 152.251 183.306 152.32 183.305C154.145 183.015 156.745 184.56 157.745 185.76C157.772 185.792 157.805 185.817 157.844 185.834C157.882 185.85 157.923 185.858 157.965 185.855Z" fill="#F0F0F0"/>
<path d="M189.79 210.705C190.08 213.385 190.575 215.14 191.58 216.665C192.585 218.19 194.355 218.585 196.08 218.025C197.805 217.465 200.02 216.105 200.405 213.755C200.79 211.405 201.005 209.805 200.475 207.335L189.79 210.705Z" fill="#263238"/>
<path d="M197.195 190.885C197.925 190.885 197.915 194.475 198.52 198.065C199.17 201.91 199.79 203.415 200.36 206.565C201.005 210.165 200.505 211.82 199.39 214.065C198.275 216.31 194.025 218.725 191.715 215.705C189.83 213.245 189.61 210.405 189.58 206.775C189.555 203.02 189.08 200.53 188.63 197.715C188.17 194.805 187.59 192.215 188.205 191.86C188.355 192.64 188.68 194.175 188.85 194.73C188.91 194.935 189.24 195.415 189.315 194.65C189.315 194.425 189.24 193.91 189.25 193.685C189.247 193.489 189.304 193.297 189.414 193.135C189.524 192.973 189.682 192.849 189.865 192.78C190.802 192.251 191.85 191.951 192.925 191.905C194.345 191.815 195.57 191.7 196.385 192.07C196.885 192.295 196.885 192.765 196.965 193.22C197.055 193.765 197.08 194.1 197.2 193.985C197.45 193.77 197.14 191.275 197.195 190.885Z" fill="#37474F"/>
<path d="M200.67 208.66C200.903 210.588 200.527 212.541 199.595 214.245C198.475 216.51 193.875 218.935 191.565 215.915C190.415 214.415 190.035 212.58 189.79 210.7C190.955 208.21 198.53 206.71 200.67 208.66Z" fill="#FAFAFA"/>
<path d="M191.175 206.67C191.205 206.665 191.234 206.655 191.26 206.64C191.29 206.64 194.58 204.995 197.895 205.595C197.965 205.601 198.035 205.581 198.091 205.538C198.146 205.495 198.184 205.433 198.196 205.364C198.208 205.294 198.193 205.223 198.155 205.164C198.117 205.105 198.058 205.063 197.99 205.045C194.49 204.415 191.125 206.08 190.99 206.15C190.927 206.187 190.881 206.246 190.862 206.316C190.842 206.386 190.85 206.461 190.885 206.525C190.911 206.577 190.954 206.62 191.006 206.646C191.058 206.672 191.117 206.68 191.175 206.67Z" fill="#F0F0F0"/>
<path d="M197.595 202.9C197.647 202.892 197.694 202.868 197.733 202.833C197.771 202.797 197.798 202.751 197.81 202.7C197.83 202.63 197.822 202.554 197.788 202.49C197.753 202.425 197.695 202.377 197.625 202.355C194.305 201.4 190.775 203.315 190.625 203.395C190.563 203.433 190.518 203.495 190.5 203.566C190.482 203.637 190.493 203.712 190.53 203.775C190.547 203.806 190.57 203.834 190.599 203.856C190.627 203.879 190.659 203.895 190.694 203.904C190.728 203.913 190.764 203.916 190.8 203.911C190.835 203.906 190.869 203.894 190.9 203.875C190.93 203.875 194.37 202 197.46 202.875C197.502 202.894 197.549 202.902 197.595 202.9Z" fill="#F0F0F0"/>
<path d="M197.345 200.355C197.397 200.348 197.445 200.326 197.484 200.291C197.524 200.256 197.552 200.211 197.565 200.16C197.584 200.09 197.576 200.016 197.543 199.952C197.51 199.888 197.453 199.839 197.385 199.815C193.73 198.69 190.385 200.755 190.27 200.84C190.21 200.883 190.169 200.948 190.155 201.02C190.141 201.093 190.156 201.168 190.195 201.23C190.215 201.26 190.241 201.285 190.271 201.305C190.301 201.325 190.335 201.339 190.37 201.345C190.406 201.352 190.442 201.351 190.477 201.343C190.512 201.335 190.546 201.321 190.575 201.3C190.6 201.3 193.825 199.3 197.225 200.35C197.264 200.362 197.305 200.363 197.345 200.355Z" fill="#F0F0F0"/>
<path d="M197.04 197.86C197.09 197.849 197.136 197.826 197.174 197.791C197.211 197.757 197.239 197.714 197.255 197.665C197.276 197.595 197.27 197.52 197.237 197.455C197.205 197.39 197.148 197.34 197.08 197.315C193.65 196.205 190.055 198.315 189.92 198.425C189.86 198.467 189.818 198.53 189.803 198.601C189.788 198.673 189.801 198.748 189.84 198.81C189.859 198.841 189.884 198.867 189.913 198.888C189.942 198.908 189.975 198.923 190.01 198.93C190.045 198.938 190.082 198.938 190.117 198.931C190.152 198.924 190.185 198.91 190.215 198.89C190.245 198.89 193.715 196.815 196.915 197.85C196.956 197.861 196.998 197.864 197.04 197.86Z" fill="#EBEBEB"/>
<path d="M191.935 105.935L156.215 100.845C154.465 110.695 152.83 128.69 152.185 140.445C154.11 145.62 166.415 147.625 170.79 145.71L173.33 134.76C173.33 134.76 174.485 141.005 175.33 146.855C176.42 147.695 178.33 149.58 185.55 148.92C193.74 148.17 194.48 145.83 195.025 145.015C194.755 139.83 193.985 128.35 193.725 124.64C193.11 116.17 192.465 109.23 191.935 105.935Z" fill="#37474F"/>
<path d="M173.33 134.76L171.235 116.175C171.235 116.175 165.985 114.675 162.665 110.935C162.87 113.665 167.5 117.24 169.665 117.82L172 134.5L170.81 145.72L173.33 134.76Z" fill="#263238"/>
<path d="M211.5 22.58C212.13 23.475 213.54 22.885 214.34 23.435C214.456 23.5093 214.55 23.6132 214.613 23.736C214.675 23.8587 214.704 23.9959 214.696 24.1335C214.687 24.271 214.643 24.4038 214.566 24.5184C214.49 24.6329 214.384 24.7249 214.26 24.785C213.695 25.13 213 25.04 212.37 25.135C211.642 25.2624 210.95 25.5437 210.34 25.96C209.035 26.795 207.34 27.51 205.84 26.725C206.157 26.5394 206.453 26.3216 206.725 26.075C208.33 24.91 209.93 23.75 211.5 22.58Z" fill="#F28F8F"/>
<path d="M223.275 18.595C223.225 18.48 223.07 18.465 222.95 18.49C222.785 18.5235 222.618 18.5469 222.45 18.56C222.261 18.5714 222.075 18.6067 221.895 18.665C221.94 18.5625 221.964 18.452 221.965 18.34C221.965 18.23 221.965 17.99 221.88 17.92C221.716 17.8355 221.534 17.791 221.35 17.79L219.66 17.585C218.66 17.465 217.745 17.18 216.83 17.31C215.915 17.44 215.04 17.47 213.685 17.555C212.343 17.5532 211.003 17.6788 209.685 17.93C208.685 18.145 205.125 19.065 203.185 19.54C197.265 20.99 184.15 23.825 180.82 25.43C177.49 27.035 176.26 27.4 174.13 32.93C171.97 38.55 170.02 44.53 167.515 54.855C165.605 62.735 165.46 63.725 163.74 69.965C164.115 72.235 168.67 66.56 172.505 63.525C177.705 59.41 181.255 55.44 181.42 53.96C181.715 51.305 181.455 50.4 181.86 47.905C182.36 44.73 185.505 35.445 185.505 35.445C185.505 35.445 191.555 32.28 195.28 30.16C199.715 27.66 203.075 25.16 204.71 26.275C206.09 27.155 207.18 26.66 208.21 25.94C209.24 25.22 210.08 23.94 210.825 23.175C211.925 22.055 212.51 22.175 213.37 21.965C214.146 21.7807 214.887 21.4735 215.565 21.055C215.689 21.0638 215.811 21.0856 215.93 21.12C216.055 21.12 216.175 21.12 216.3 21.15C216.555 21.15 216.8 21.15 217.065 21.15H217.66C217.96 21.1472 218.259 21.1238 218.555 21.08C218.825 21.035 219.09 20.955 219.365 20.915C219.818 20.8891 220.269 20.8357 220.715 20.755C220.839 20.7307 220.958 20.6819 221.064 20.6116C221.169 20.5412 221.26 20.4506 221.33 20.345C221.364 20.2738 221.406 20.2067 221.455 20.145C221.502 20.1054 221.557 20.0749 221.615 20.055C222.009 19.9391 222.386 19.771 222.735 19.555C222.974 19.3598 223.149 19.0965 223.235 18.8C223.273 18.739 223.288 18.6659 223.275 18.595Z" fill="#FFA8A7"/>
<path d="M219.235 20.945C218.082 21.1842 216.894 21.1995 215.735 20.99C215.652 20.9758 215.566 20.988 215.49 21.025C214.917 21.4038 214.285 21.6843 213.62 21.855C213.175 21.96 212.57 22.095 212.165 22.175L212.31 22.09C212.49 21.99 212.66 21.885 212.84 21.79C213.2 21.5984 213.572 21.4314 213.955 21.29C213.533 21.3091 213.122 21.4273 212.755 21.635C212.442 21.8107 212.155 22.0276 211.9 22.28C211.571 22.4265 211.269 22.6296 211.01 22.88C210.435 23.445 209.845 24.215 209.2 24.91C208.586 25.2867 207.875 25.4729 207.155 25.445C206.792 25.4151 206.435 25.3343 206.095 25.205C205.733 25.0172 205.383 24.8085 205.045 24.58C205.291 24.8948 205.597 25.1581 205.945 25.355C206.299 25.555 206.691 25.6809 207.095 25.725C207.827 25.7529 208.542 25.5008 209.095 25.02C207.885 26.305 206.5 27.3 204.725 26.295C206.09 27.375 207.815 26.595 208.94 25.54C210.07 24.585 210.775 23.04 212.15 22.435C212.465 22.345 212.94 22.27 213.68 22.085C214.385 21.9392 215.051 21.6462 215.635 21.225H215.75C216.907 21.3892 218.085 21.3315 219.22 21.055C219.91 20.865 220.9 21.055 221.345 20.37C220.845 21 219.955 20.8 219.235 20.945Z" fill="#F28F8F"/>
<path d="M216.775 19.59C216.898 19.5057 217.038 19.4478 217.185 19.42C217.299 19.4173 217.413 19.4274 217.525 19.45C218.006 19.5247 218.499 19.4605 218.945 19.265C219.045 19.2121 219.153 19.175 219.265 19.155C219.381 19.1501 219.497 19.1602 219.61 19.185C220.029 19.2272 220.453 19.1933 220.86 19.085C220.964 19.0691 221.066 19.0423 221.165 19.005C221.223 18.9812 221.277 18.9492 221.325 18.91C220.984 19.0295 220.626 19.0904 220.265 19.09C219.928 19.0747 219.593 19.0261 219.265 18.945H219.22L219.16 18.97C218.998 19.0408 218.831 19.0993 218.66 19.145C218.495 19.1882 218.329 19.2216 218.16 19.245C217.817 19.2901 217.47 19.28 217.13 19.215H217.025L216.97 19.265C216.87 19.3541 216.763 19.4344 216.65 19.505C216.535 19.5811 216.414 19.6496 216.29 19.71C216.168 19.7756 216.041 19.8324 215.91 19.88C215.776 19.9282 215.639 19.9683 215.5 20C215.958 20.0058 216.406 19.8618 216.775 19.59Z" fill="#F28F8F"/>
<path d="M221.165 20.195C221.25 20.195 221.33 20.14 221.41 20.13C221.133 20.14 220.855 20.1249 220.58 20.085H220.41L220.225 20.11C219.922 20.1863 219.612 20.2282 219.3 20.235C218.957 20.2272 218.618 20.156 218.3 20.025L218.205 19.985L218.13 20.05C217.987 20.1697 217.833 20.2752 217.67 20.365C217.509 20.4603 217.342 20.5455 217.17 20.62C216.989 20.6921 216.803 20.7539 216.615 20.805C216.423 20.8606 216.227 20.9056 216.03 20.94C216.548 20.9492 217.061 20.8397 217.53 20.62C217.675 20.545 217.815 20.465 217.955 20.385C218.095 20.305 218.2 20.195 218.32 20.215L218.38 20.24C218.697 20.4019 219.057 20.4629 219.41 20.415C219.745 20.375 220.065 20.235 220.41 20.215C220.575 20.215 220.74 20.215 220.91 20.215C220.995 20.2154 221.081 20.2087 221.165 20.195Z" fill="#F28F8F"/>
<path d="M183.65 58.825C183.65 58.825 184.515 59.495 188.95 61.465C192.795 63.175 201.405 67.785 201.405 67.785C201.405 67.785 206 75.31 200.235 82.5C199.615 83.27 193.775 88.37 192.95 92.865C192.085 97.565 191.985 101.4 192.265 107.155C192.265 107.155 184.53 113.42 170.05 110.655C158.855 108.545 155.915 101 155.915 101C155.915 101 157.545 87.88 160.17 79.915C162.305 73.455 164.585 67.27 166.67 64.21C171.445 57.105 181.48 53.95 181.48 53.95C181.69 56.06 182.425 57.8 183.65 58.825Z" fill="#BCE08A"/>
<path d="M192.95 37.96C192.95 37.96 191.39 37.28 189.405 38.65C188.405 39.34 187.135 40.885 185.86 46.56C185.358 48.7657 185.189 51.0343 185.36 53.29C185.38 54.002 185.674 54.6789 186.18 55.18L188.1 51.315L189.365 48.59C189.365 48.59 192.535 47.78 193.73 45.97C195.265 43.64 195.045 41.745 195.045 41.745L192.95 37.96Z" fill="#263238"/>
<path d="M192.47 37.47C193.97 35.525 198.045 34.41 203.43 36.905C207.845 38.95 209.43 41.765 209.74 45.05C210.085 48.69 207.205 51.05 207.205 51.05L194.205 43.05L192.47 37.47Z" fill="#263238"/>
<path d="M184.12 50.24C185.585 52.24 187.31 51.165 187.31 51.165L183.445 59.165C177.645 62.005 187.445 67.705 193.495 63.775L194.435 61.975C195.016 62.2657 195.618 62.513 196.235 62.715C198.13 63.365 199.945 63.545 201.885 61.215C204.31 58.295 206.41 54.245 207.885 48.92C208.17 47.89 208.305 46.675 207.685 45.81C206.135 43.665 203.405 44.13 199.88 43.72C198.42 43.55 195.38 42.22 194.795 41.43C195.215 43.095 193.705 46.195 191.435 46.845C191.345 46.965 190.705 48.135 189.85 48.135C188.89 48.135 189.09 46.38 188.85 45.535C188.705 45.1771 188.479 44.8577 188.189 44.6018C187.9 44.3459 187.555 44.1606 187.182 44.0603C186.809 43.9601 186.418 43.9476 186.039 44.0239C185.661 44.1002 185.305 44.2631 185 44.5C184.559 44.8143 184.186 45.2137 183.902 45.6747C183.618 46.1358 183.43 46.649 183.348 47.1842C183.266 47.7193 183.292 48.2654 183.424 48.7903C183.557 49.3152 183.794 49.8081 184.12 50.24Z" fill="#FFA8A7"/>
<path d="M194.435 62C192.15 60.775 190.265 59.415 189.215 58.125C188.165 56.835 187.935 54.37 188.505 52.35C187.73 53.81 187.005 56.74 188.48 58.905C189.955 61.07 192.32 62.405 193.8 63.215L194.435 62Z" fill="#F28F8F"/>
<path d="M198.245 46.385L195.88 46.665C195.851 46.345 195.947 46.0261 196.147 45.7747C196.347 45.5234 196.637 45.3587 196.955 45.315C197.111 45.2971 197.268 45.3108 197.418 45.3554C197.568 45.4 197.708 45.4746 197.828 45.5745C197.949 45.6745 198.048 45.7979 198.12 45.9372C198.191 46.0765 198.234 46.2288 198.245 46.385Z" fill="#263238"/>
<path d="M205.86 50.37L204.305 48.545C204.418 48.4375 204.552 48.3544 204.699 48.3007C204.846 48.247 205.002 48.2239 205.158 48.2328C205.314 48.2417 205.466 48.2824 205.606 48.3524C205.746 48.4225 205.87 48.5203 205.97 48.64C206.177 48.8877 206.28 49.2051 206.26 49.527C206.239 49.8488 206.096 50.1505 205.86 50.37Z" fill="#263238"/>
<path d="M196.265 48.705C196.183 48.8768 196.153 49.0691 196.18 49.2577C196.207 49.4463 196.289 49.6227 196.416 49.7647C196.543 49.9067 196.709 50.008 196.893 50.0558C197.078 50.1035 197.272 50.0957 197.452 50.0331C197.632 49.9706 197.789 49.8562 197.905 49.7044C198.02 49.5526 198.087 49.3701 198.099 49.18C198.11 48.9899 198.065 48.8006 197.969 48.636C197.873 48.4714 197.731 48.3388 197.56 48.255C197.329 48.1431 197.062 48.1277 196.819 48.212C196.577 48.2964 196.377 48.4737 196.265 48.705Z" fill="#263238"/>
<path d="M202.855 51.345C202.771 51.5177 202.741 51.7113 202.767 51.9014C202.793 52.0915 202.875 52.2695 203.003 52.4129C203.13 52.5563 203.298 52.6586 203.483 52.707C203.669 52.7553 203.865 52.7475 204.046 52.6845C204.227 52.6216 204.386 52.5062 204.502 52.3531C204.617 52.2 204.685 52.0161 204.696 51.8245C204.707 51.6329 204.661 51.4423 204.564 51.2769C204.467 51.1114 204.323 50.9785 204.15 50.895C204.038 50.8262 203.913 50.7832 203.782 50.769C203.652 50.7548 203.52 50.7697 203.396 50.8128C203.272 50.8559 203.159 50.926 203.065 51.018C202.972 51.1101 202.9 51.2218 202.855 51.345Z" fill="#263238"/>
<path d="M200.965 49L198.78 54.83L202.225 55.295C202.281 53.1289 201.85 50.9778 200.965 49Z" fill="#F28F8F"/>
<path d="M195.4 54.2L197.85 56.76C197.688 56.9275 197.493 57.0608 197.279 57.1517C197.064 57.2427 196.833 57.2896 196.6 57.2896C196.367 57.2896 196.136 57.2427 195.921 57.1517C195.706 57.0608 195.512 56.9275 195.35 56.76C195.027 56.4092 194.851 55.947 194.861 55.47C194.87 54.9929 195.063 54.5379 195.4 54.2Z" fill="#B16668"/>
<path d="M195.43 54.905C195.319 54.814 195.198 54.7352 195.07 54.67C194.891 55.0057 194.821 55.3892 194.87 55.7666C194.919 56.1441 195.085 56.4967 195.345 56.775C195.478 56.9111 195.634 57.0228 195.805 57.105C196.036 56.7601 196.127 56.3396 196.057 55.9301C195.987 55.5207 195.763 55.1537 195.43 54.905Z" fill="#F28F8F"/>
<path d="M195.26 116.33C196.16 115.86 197.22 115.535 197.835 114.67C198.002 114.453 198.115 114.199 198.166 113.93C198.218 113.661 198.205 113.383 198.13 113.12C198.079 113.017 198.052 112.905 198.05 112.79C198.068 112.698 198.105 112.611 198.16 112.535C198.382 112.205 198.494 111.813 198.48 111.415C198.461 111.248 198.406 111.086 198.32 110.941C198.234 110.796 198.118 110.672 197.98 110.575C198.348 110.101 198.552 109.52 198.56 108.92C198.56 108.215 198.105 107.485 197.43 108.03C197.105 108.306 196.809 108.615 196.545 108.95C195.884 109.783 195.32 110.689 194.865 111.65C194.39 112.65 193.085 115.495 194.64 116.21C194.78 116.265 195.13 116.4 195.26 116.33Z" fill="#F28F8F"/>
<path d="M201.405 67.785C206.18 70.22 207.295 71.285 210.7 79.225C213.29 85.26 216.885 93.105 217.15 95.985C217.475 99.55 217.35 100.83 212.915 102.905C210.625 103.975 207.555 105.13 204.355 106.525C201.825 107.625 198.855 108.695 196.385 109.88C196.067 109.992 195.787 110.193 195.579 110.459C195.371 110.725 195.243 111.044 195.21 111.38C195.195 111.834 195.155 112.286 195.09 112.735C194.89 113.282 194.65 113.814 194.37 114.325C194.232 114.584 194.171 114.877 194.195 115.17C194.219 115.462 194.327 115.742 194.505 115.975C194.722 116.159 194.982 116.286 195.26 116.345C194.677 116.532 194.068 116.627 193.455 116.625C192.836 116.625 192.241 116.389 191.79 115.965C191.375 115.54 191.165 114.93 190.69 114.575C190.43 114.385 190.115 114.29 189.855 114.105C189.58 113.92 189.375 113.649 189.27 113.335C189.1 112.835 189.175 112.24 188.825 111.835C188.639 111.672 188.443 111.52 188.24 111.38C188.06 111.198 187.927 110.975 187.851 110.731C187.775 110.486 187.759 110.227 187.805 109.975C187.906 109.474 188.092 108.994 188.355 108.555C188.95 107.449 189.601 106.375 190.305 105.335C190.649 104.867 191.06 104.453 191.525 104.105C191.965 103.795 192.4 103.465 192.855 103.175C195.95 101.235 205.93 94.635 205.93 94.635L198.93 83.135C198.472 82.3853 198.193 81.5401 198.115 80.665C197.825 77.725 197.675 70.97 201.405 67.785Z" fill="#FFA8A7"/>
<path d="M195.26 116.33C193.89 116.76 192.095 116.765 191.39 115.29C191.21 114.954 190.957 114.662 190.65 114.435C189.98 114.1 189.35 113.745 189.285 112.935C189.265 112.548 189.157 112.17 188.97 111.83C188.705 111.485 188.32 111.385 188.155 111.095C187.965 110.798 187.882 110.445 187.92 110.095C188.28 108.39 189.585 106.785 190.49 105.3C191.095 104.37 192.14 103.9 192.99 103.235L194.845 102.015C198.44 99.655 202.39 97.015 205.925 94.615C202.305 96.875 198.305 99.45 194.7 101.785L192.845 103C191.965 103.665 190.845 104.175 190.25 105.14C189.655 106.105 189.045 107.015 188.505 107.99C188.085 108.624 187.799 109.337 187.665 110.085C187.629 110.485 187.729 110.885 187.95 111.22C188.185 111.58 188.6 111.695 188.785 111.95C188.957 112.257 189.058 112.599 189.08 112.95C189.127 113.34 189.303 113.702 189.58 113.98C189.878 114.208 190.202 114.401 190.545 114.555C191.165 114.945 191.365 115.785 192 116.195C192.965 116.85 194.205 116.63 195.245 116.31L195.26 116.33Z" fill="#F28F8F"/>
<path d="M205.93 94.635C207.145 97.135 210.01 98.35 211.105 98.67C209.87 98.7288 208.644 98.4369 207.568 97.8282C206.492 97.2195 205.611 96.3187 205.025 95.23L205.93 94.635Z" fill="#F28F8F"/>
<path d="M55.525 190.205C56.09 184.385 56.92 171.02 57.17 168.48C58.015 159.95 59.26 157.535 60.06 154.625C60.86 151.715 59.82 143.805 60.035 129.195C60.175 119.765 62.725 115.52 65.035 109.06H97.3C98.69 120.995 99.97 136.845 99.915 148.73C99.87 159.31 96.915 174.73 97.58 180.68C97.87 183.315 99.61 185.395 101.15 186.875C102.585 188.25 104.15 189.48 105.72 190.705C106.525 191.335 107.395 191.925 108.16 192.61C108.825 193.21 109.695 193.68 110.225 194.43C110.468 194.739 110.614 195.112 110.646 195.503C110.678 195.894 110.594 196.286 110.405 196.63C109.961 197.15 109.338 197.485 108.66 197.57C105.395 198.325 101.745 198.115 98.98 196.215C97.095 194.915 95.755 192.945 93.885 191.615C92.45 190.615 90.73 189.975 89.455 188.755C89.0632 188.398 88.7396 187.973 88.5 187.5C87.73 185.88 88.36 184 88.38 182.315C88.38 182 88.31 180.09 88.34 179.955C88.34 178.485 85.68 164.175 85.045 159.18C84.5863 155.831 84.5243 152.439 84.86 149.075L81.2 132.225C81.2 132.225 76.2 151.225 74.345 158.585C72.98 163.99 65.345 187.455 64.275 191.615C64.015 193.78 62.005 202.975 61.605 205.275C59.85 215.455 51.605 209.895 52.465 206.035C53.81 200 55.405 191.455 55.525 190.205Z" fill="#FFA8A7"/>
<path d="M111.85 196.945C112.005 196.945 112.09 198.755 111.175 199.445C110.125 200.225 107.13 201.39 103.385 200.535C99.64 199.68 97.69 198.28 96.285 196.83C94.88 195.38 92.915 193.33 91.235 192.785C89.675 192.285 87.16 191.11 86.695 190.555C86.23 190 86.495 187.745 86.495 187.745L111.85 196.945Z" fill="#263238"/>
<path d="M88.32 179.93C88.1625 179.992 88.0205 180.088 87.9039 180.21C87.7873 180.333 87.6989 180.48 87.645 180.64C87.475 181.255 87.4 182.05 87.06 183.05C86.5989 184.828 86.4101 186.665 86.5 188.5C86.61 189.675 90 191 91.585 191.785C93.4702 192.853 95.1816 194.201 96.66 195.785C98.31 197.465 101.925 199.33 104.39 199.595C108.16 200 110.69 199.17 111.57 197.84C112.65 196.195 112.34 194.34 108.185 191.885C107.4 191.415 104.685 189.385 103.745 188.66C102.757 187.892 101.836 187.042 100.99 186.12C100.563 185.652 100.16 185.161 99.785 184.65C99.2016 183.933 98.7834 183.097 98.56 182.2C98.5112 181.847 98.4445 181.496 98.36 181.15C98.2726 180.801 98.0565 180.497 97.755 180.3C97.4055 180.144 97.0179 180.093 96.64 180.155C95.3936 180.19 94.1568 180.385 92.96 180.735C91.905 181.095 91.57 181.915 91.46 182.97C91.43 183.23 91.41 183.47 91.385 183.755C91.385 183.865 91.385 184.07 91.255 184.01C91.125 183.95 90.99 183.55 90.945 183.41C90.85 183.105 90.8 182.785 90.695 182.485C90.6116 182.124 90.455 181.783 90.235 181.485C89.57 180.795 88.575 180.84 88.385 180.605C88.36 180.63 88.325 180.15 88.32 179.93Z" fill="#37474F"/>
<path d="M108.415 192.04C102.915 191.925 101.005 196.285 100.585 198.415C101.782 199.014 103.066 199.419 104.39 199.615C108.16 200.02 110.845 199.205 111.725 197.875C112.745 196.325 112.155 193.915 108.415 192.04Z" fill="#FAFAFA"/>
<path d="M100.33 192.38C100.267 192.376 100.208 192.347 100.165 192.3C100.115 192.247 100.088 192.177 100.088 192.105C100.088 192.033 100.115 191.963 100.165 191.91C101.01 191.02 103.665 189.185 105.615 189.59C105.686 189.606 105.748 189.648 105.787 189.709C105.826 189.77 105.84 189.844 105.825 189.915C105.819 189.95 105.806 189.984 105.787 190.014C105.768 190.044 105.743 190.069 105.713 190.089C105.684 190.109 105.651 190.123 105.616 190.13C105.581 190.137 105.545 190.137 105.51 190.13C103.675 189.76 101.22 191.59 100.55 192.3C100.521 192.329 100.487 192.351 100.449 192.365C100.411 192.378 100.37 192.384 100.33 192.38Z" fill="#F0F0F0"/>
<path d="M98.1 190.75C98.0377 190.742 97.9797 190.714 97.935 190.67C97.8843 190.618 97.8559 190.548 97.8559 190.475C97.8559 190.402 97.8843 190.332 97.935 190.28C98.775 189.39 101.435 187.55 103.38 187.96C103.451 187.976 103.513 188.018 103.552 188.079C103.591 188.14 103.605 188.214 103.59 188.285C103.577 188.355 103.536 188.417 103.477 188.458C103.418 188.498 103.345 188.513 103.275 188.5C101.44 188.125 98.985 189.96 98.315 190.665C98.2881 190.695 98.2548 190.718 98.2175 190.733C98.1802 190.747 98.14 190.753 98.1 190.75Z" fill="#F0F0F0"/>
<path d="M96.06 188.93C95.9993 188.925 95.9424 188.899 95.9 188.855C95.8743 188.829 95.8539 188.799 95.84 188.766C95.8261 188.732 95.8189 188.696 95.8189 188.66C95.8189 188.624 95.8261 188.588 95.84 188.554C95.8539 188.521 95.8743 188.491 95.9 188.465C96.74 187.57 99.4 185.735 101.345 186.14C101.416 186.156 101.478 186.198 101.517 186.259C101.556 186.32 101.57 186.394 101.555 186.465C101.549 186.5 101.536 186.534 101.517 186.564C101.498 186.594 101.473 186.62 101.443 186.641C101.414 186.661 101.381 186.676 101.346 186.683C101.311 186.691 101.275 186.691 101.24 186.685C99.41 186.31 96.95 188.145 96.28 188.85C96.2526 188.88 96.2183 188.903 96.1799 188.917C96.1416 188.931 96.1004 188.936 96.06 188.93Z" fill="#F0F0F0"/>
<path d="M94.065 187.12C94.0047 187.114 93.9482 187.088 93.905 187.045C93.8554 186.992 93.8279 186.922 93.8279 186.85C93.8279 186.778 93.8554 186.708 93.905 186.655C95.07 185.385 97.845 183.94 99.81 184.345C99.8808 184.361 99.9425 184.403 99.9818 184.464C100.021 184.525 100.035 184.599 100.02 184.67C100.014 184.705 100.001 184.739 99.9819 184.769C99.9627 184.799 99.9378 184.825 99.9085 184.846C99.8792 184.866 99.8461 184.881 99.8112 184.888C99.7762 184.896 99.7402 184.896 99.705 184.89C97.94 184.525 95.325 185.89 94.295 187.035C94.2661 187.066 94.2302 187.09 94.1902 187.105C94.1502 187.12 94.1073 187.125 94.065 187.12Z" fill="#F0F0F0"/>
<path d="M61.835 209.9C61.425 212.5 60.835 214.195 59.805 215.635C58.775 217.075 57.01 217.385 55.335 216.755C53.66 216.125 51.58 214.695 51.335 212.385C51.09 210.075 50.93 208.5 51.565 206.115L61.835 209.9Z" fill="#263238"/>
<path d="M55.525 190.205C54.81 190.205 54.655 193.675 53.895 197.15C53.08 200.88 52.395 202.32 51.705 205.37C50.91 208.87 51.32 210.495 52.305 212.755C53.29 215.015 57.305 217.555 59.72 214.715C61.675 212.395 62.02 209.64 62.22 206.095C62.4216 203.127 62.8732 200.182 63.57 197.29C64.15 194.47 64.84 191.95 64.255 191.59C64.075 192.35 63.685 193.835 63.495 194.365C63.425 194.56 63.08 195.015 63.045 194.265C63.045 194.045 63.15 193.545 63.15 193.325C63.1642 193.134 63.1182 192.944 63.0187 192.781C62.9192 192.618 62.771 192.49 62.595 192.415C61.7047 191.853 60.6936 191.51 59.645 191.415C58.26 191.265 57.07 191.09 56.26 191.415C55.76 191.61 55.76 192.07 55.64 192.51C55.53 193.035 55.49 193.365 55.375 193.245C55.14 193 55.56 190.59 55.525 190.205Z" fill="#37474F"/>
<path d="M51.305 207.395C50.9905 209.266 51.2666 211.188 52.095 212.895C53.095 215.155 57.46 217.735 59.855 214.895C61.05 213.48 61.505 211.71 61.855 209.895C60.815 207.41 53.5 205.595 51.305 207.395Z" fill="#FAFAFA"/>
<path d="M60.67 205.895C60.6394 205.89 60.6103 205.878 60.585 205.86C60.585 205.86 57.42 204.105 54.155 204.535C54.0844 204.541 54.0143 204.519 53.9593 204.474C53.9044 204.43 53.8688 204.365 53.86 204.295C53.8515 204.225 53.8708 204.154 53.9138 204.098C53.9568 204.042 54.02 204.005 54.09 203.995C57.545 203.54 60.745 205.32 60.86 205.395C60.9202 205.434 60.9631 205.495 60.9799 205.565C60.9966 205.634 60.9859 205.708 60.95 205.77C60.9226 205.818 60.8807 205.856 60.8304 205.878C60.7801 205.901 60.7239 205.907 60.67 205.895Z" fill="#F0F0F0"/>
<path d="M54.575 201.915C54.525 201.905 54.4792 201.88 54.4435 201.843C54.4079 201.807 54.384 201.76 54.375 201.71C54.3583 201.641 54.3694 201.568 54.4059 201.508C54.4424 201.447 54.5013 201.403 54.57 201.385C57.855 200.605 61.215 202.64 61.34 202.725C61.3987 202.766 61.4394 202.827 61.4534 202.897C61.4674 202.967 61.4536 203.04 61.415 203.1C61.3771 203.159 61.3174 203.2 61.249 203.215C61.1806 203.23 61.1091 203.218 61.05 203.18C61.02 203.18 57.745 201.18 54.69 201.915C54.6523 201.925 54.6127 201.925 54.575 201.915Z" fill="#F0F0F0"/>
<path d="M54.935 199.445C54.8862 199.434 54.8415 199.409 54.8061 199.374C54.7707 199.339 54.746 199.294 54.735 199.245C54.718 199.176 54.7282 199.103 54.7636 199.042C54.799 198.98 54.8569 198.935 54.925 198.915C58.545 197.985 61.71 200.155 61.825 200.245C61.8815 200.29 61.9182 200.356 61.9276 200.427C61.9369 200.499 61.918 200.572 61.875 200.63C61.8548 200.659 61.8289 200.683 61.7989 200.701C61.769 200.719 61.7356 200.731 61.7009 200.736C61.6662 200.74 61.6309 200.738 61.5972 200.728C61.5634 200.719 61.5321 200.702 61.505 200.68C61.48 200.68 58.425 198.58 55.055 199.445C55.0156 199.455 54.9744 199.455 54.935 199.445Z" fill="#F0F0F0"/>
<path d="M55.355 197C55.3058 196.989 55.2606 196.964 55.2244 196.929C55.1883 196.894 55.1625 196.849 55.15 196.8C55.133 196.731 55.1432 196.658 55.1786 196.597C55.2141 196.535 55.2719 196.49 55.34 196.47C58.74 195.545 62.15 197.785 62.28 197.88C62.3367 197.924 62.3744 197.987 62.3856 198.058C62.3968 198.129 62.3804 198.201 62.34 198.26C62.321 198.29 62.296 198.315 62.2666 198.335C62.2372 198.354 62.2041 198.368 62.1693 198.374C62.1345 198.38 62.0988 198.379 62.0645 198.37C62.0302 198.362 61.998 198.346 61.97 198.325C61.94 198.325 58.63 196.135 55.47 196.995C55.4326 197.006 55.3932 197.007 55.355 197Z" fill="#EBEBEB"/>
<path d="M63.5 109.2C62.91 110.67 61.325 112.67 60.075 120.7C59.075 127.2 59.8 153.4 59.8 153.4C58.1473 157.716 57.1056 162.241 56.705 166.845C56.115 174.235 55.99 184.895 55.99 184.895C57.157 186.354 58.8054 187.35 60.64 187.705C63.865 188.42 65.545 187.255 65.545 187.255C65.545 187.255 73.575 166.19 75.395 158.635C77.215 151.08 81.05 134.245 81.05 134.245L84.05 148.71C83.6062 151.943 83.576 155.219 83.96 158.46C84.62 163.46 87.755 175.625 87.755 175.625C89.5566 176.6 91.5957 177.048 93.64 176.92C96.8 176.62 97.69 174.53 97.69 174.53C97.69 174.53 100.28 156.675 100.515 149.945C100.75 143.215 101.615 119.145 97.54 105.16L63.5 109.2Z" fill="#37474F"/>
<path d="M81.03 134.26L84 120.13C84 120.13 89.195 118.88 92.61 115.41C92.28 118.065 87.61 121.34 85.435 121.805L83.03 133.955L84.03 148.725L81.03 134.26Z" fill="#263238"/>
<path d="M88.595 71.285C86.26 69.285 80.03 61.38 77.96 57.285C75.89 53.19 69.08 40.895 67.215 38.05C65.35 35.205 64.63 34 57.87 28.5C54.43 25.735 47 19.865 45.105 18.455C43.21 17.045 41.655 16.695 40 17.3C38.345 17.905 36.7 19.165 35.865 19.565C34.4 20.255 33.865 20.92 34.485 21.525C33.4483 22.0679 32.3459 22.4746 31.205 22.735C29.31 23.165 27.5 23.165 27.325 23.855C27.15 24.545 28.115 25.1 28.115 25.1C28.115 25.1 27.615 25.55 29.115 26.255C30.615 26.96 33.37 26.87 36.735 26.01C40.1 25.15 41.045 23.595 41.825 24.01C42.605 24.425 53.89 37.555 55.185 39.28C56.48 41.005 69.335 68.01 69.335 68.01L88.595 71.285Z" fill="#F28F8F"/>
<path d="M39.42 20.28C39.2808 20.2426 39.1342 20.2426 38.995 20.28C38.3116 20.4864 37.6578 20.7806 37.05 21.155C36.8228 21.2724 36.5871 21.3727 36.345 21.455C36.1326 21.5462 35.909 21.6084 35.68 21.64C35.2963 21.6795 34.9087 21.6507 34.535 21.555C34.85 21.7637 35.2321 21.8458 35.605 21.785C36.1238 21.7098 36.6291 21.5599 37.105 21.34C37.605 21.145 38.055 20.885 38.54 20.67C38.8521 20.5326 39.1727 20.4157 39.5 20.32C39.4753 20.3031 39.4484 20.2896 39.42 20.28Z" fill="#B16668"/>
<path d="M63 68.4C62.642 68.6198 62.2301 68.7361 61.81 68.7361C61.3899 68.7361 60.978 68.6198 60.62 68.4C60.62 68.4 55.7 71.94 55.25 76.27C54.8 80.6 56.37 84.27 58.08 86.235C59.79 88.2 64.675 96.07 65.235 98.81C65.98 102.47 65.175 104.705 63.46 109.185C63.46 109.185 70.32 112.635 80.245 112.26C95.87 111.675 97.48 105.16 97.48 105.16C97.48 105.16 96.575 100.125 95.24 94.305C94.045 89.09 92.94 85.305 92.94 85.305C92.94 85.305 96.005 79.83 92.865 74.305C88.62 66.855 73.01 65.42 73.01 65.42L63 68.4Z" fill="#BCE08A"/>
<path d="M44 48.41C44.0728 48.7826 44.2456 49.1283 44.5 49.41C45.135 50.065 46.27 50.175 46.39 51.32C46.475 52.095 45.5 52.575 44.76 52.545C45.125 53.945 47.02 53.26 47.76 52.73C48.15 53.645 48.415 53.99 49.515 54.005C51.18 54.005 51.86 53.27 52.58 51.945C53.235 50.75 54.74 50.985 55.9 50.51C57.22 49.975 57.775 48.715 57.61 47.305C57.515 46.49 56.5 45.75 56.57 45.01C56.725 43.445 59.425 44.01 60.19 43.01C61.24 41.62 60.05 39.31 58.415 39.01C57.915 38.925 57.365 39.2 56.88 39.12C56.395 39.04 56.135 38.62 55.825 38.235C55.3499 37.6012 54.7113 37.1085 53.9776 36.8099C53.2438 36.5113 52.4427 36.418 51.66 36.54C51.039 36.6277 50.4505 36.8721 49.95 37.25C49.38 37.72 49.18 38.45 48.65 38.94C47.65 39.88 45.99 39.755 45.27 41.14C45.1176 41.4309 45.0257 41.7497 44.9999 42.0772C44.9741 42.4046 45.015 42.7338 45.12 43.045C45.265 43.495 45.725 43.84 45.73 44.305C45.73 45.175 44.585 45.805 44.23 46.505C43.9468 47.0977 43.866 47.767 44 48.41Z" fill="#37474F"/>
<path d="M62.97 67.86C62.89 67.78 63.715 66.32 63.77 66.205C65.31 63.015 66.8517 59.8284 68.395 56.645L70.945 51.365C71.41 50.405 71.735 49.225 72.77 48.73C73.4716 48.4243 74.2508 48.3439 75 48.5C75.4955 48.6007 76.0085 48.5716 76.4894 48.4157C76.9704 48.2597 77.4029 47.9822 77.745 47.61C77.9286 47.412 78.0567 47.169 78.1164 46.9057C78.1761 46.6423 78.1653 46.3679 78.085 46.11C78.0141 45.9107 77.9323 45.7154 77.84 45.525C77.8543 45.6791 77.8326 45.8343 77.7767 45.9786C77.7207 46.1229 77.6321 46.2522 77.5177 46.3564C77.4033 46.4606 77.2663 46.5368 77.1175 46.5791C76.9687 46.6214 76.8121 46.6285 76.66 46.6C76.08 46.515 75.87 46.075 75.605 45.575C75.34 45.075 75.175 44.33 74.67 43.965C74.4649 43.809 74.2169 43.7195 73.9594 43.7088C73.702 43.6981 73.4474 43.7666 73.23 43.905C73.3768 43.2591 73.482 42.6044 73.545 41.945C73.5332 41.3013 73.3613 40.6707 73.045 40.11C72.495 39.11 71.45 38.79 70.41 38.61C69.165 38.38 68.17 38.775 67.015 39.2C66.21 39.495 65.45 39.93 64.615 40.15C63.905 40.335 63.115 40.395 62.415 40.525C60.5431 40.9076 58.757 41.6295 57.145 42.655C48.76 47.755 50.065 56.845 52.985 60.685C57.025 66 59.96 64.585 62.97 67.86Z" fill="#37474F"/>
<path d="M76.69 51.755C79.735 58.615 78.19 61.02 77.31 62.02C76.43 63.02 75.06 63.675 72.81 64.305L73.81 67.415C78.16 69.915 70.365 74.96 63.03 68.365L61.455 62.365C61.455 62.365 61.13 63.865 58.865 63.65C56.695 63.43 55.185 60.715 55.535 59.095C55.6238 58.7504 55.7938 58.4321 56.0307 58.1666C56.2677 57.9011 56.5647 57.6961 56.897 57.5689C57.2293 57.4416 57.5873 57.3958 57.941 57.4351C58.2946 57.4744 58.6338 57.5978 58.93 57.795C59.311 58.0941 59.6173 58.4775 59.825 58.915C59.985 59.18 60.12 59.565 60.385 59.58C61.6 59.66 61.82 57.875 61.385 56.745C62.085 55.555 62.255 54.375 61.35 52.54C62.545 52.675 64.02 51.39 64.63 50.365C65.685 48.6 65.295 47.435 65.255 45.895C65.215 44.355 66.55 43.585 67.935 43.44C69.3796 43.3723 70.8001 43.8286 71.935 44.725C72.6132 45.3246 73.2099 46.0104 73.71 46.765C74.8978 48.3042 75.8982 49.9793 76.69 51.755Z" fill="#FFA8A7"/>
<path d="M72.83 64.305C70.855 64.72 68.635 65 66.83 64.64C65.6147 64.3703 64.4961 63.7739 63.595 62.915C63.595 62.915 65.035 65.415 66.92 65.945C68.805 66.475 73.255 65.66 73.255 65.66L72.83 64.305Z" fill="#F28F8F"/>
<path d="M68 54C68.285 54.5 67.575 54.075 67.11 54.345C66.645 54.615 66.61 55.46 66.32 54.98C66.1874 54.7572 66.1487 54.4909 66.2125 54.2396C66.2762 53.9883 66.4372 53.7726 66.66 53.64C66.8828 53.5074 67.1491 53.4687 67.4004 53.5325C67.6517 53.5963 67.8674 53.7572 68 53.98V54Z" fill="#263238"/>
<path d="M73.805 51.165C73.925 51.71 73.375 51.11 72.85 51.22C72.325 51.33 72.025 52.12 71.905 51.575C71.8662 51.4461 71.8544 51.3106 71.8705 51.1769C71.8867 51.0433 71.9303 50.9144 71.9987 50.7984C72.067 50.6825 72.1587 50.5819 72.2678 50.5031C72.377 50.4243 72.5013 50.369 72.6329 50.3406C72.7645 50.3122 72.9005 50.3114 73.0324 50.3381C73.1644 50.3649 73.2893 50.4187 73.3994 50.4962C73.5096 50.5736 73.6024 50.673 73.6722 50.7881C73.742 50.9032 73.7872 51.0316 73.805 51.165Z" fill="#263238"/>
<path d="M69.44 51.71L73.215 57.105L75.445 54.51L69.44 51.71Z" fill="#F28F8F"/>
<path d="M66 51.795L64.45 53.855C64.1759 53.6388 63.9962 53.3248 63.9486 52.9789C63.9011 52.633 63.9894 52.2822 64.195 52C64.298 51.8652 64.4272 51.7526 64.5748 51.669C64.7223 51.5854 64.8853 51.5324 65.0538 51.5132C65.2224 51.4941 65.3931 51.5092 65.5557 51.5576C65.7182 51.606 65.8694 51.6868 66 51.795Z" fill="#263238"/>
<path d="M73.24 48.53L70.67 48.165C70.6845 47.9961 70.7335 47.8321 70.8139 47.6829C70.8943 47.5337 71.0044 47.4025 71.1375 47.2976C71.2706 47.1926 71.4238 47.1161 71.5876 47.0726C71.7514 47.0292 71.9224 47.0198 72.09 47.045C72.4353 47.0983 72.7471 47.282 72.961 47.5583C73.1749 47.8345 73.2748 48.1823 73.24 48.53Z" fill="#263238"/>
<path d="M73.095 59.03C73.0655 58.9942 73.0254 58.9686 72.9805 58.957C72.9356 58.9453 72.8882 58.9481 72.845 58.965C72.4355 59.1614 71.9962 59.2882 71.545 59.34C71.1521 59.354 70.761 59.2806 70.4 59.125C70.37 59.125 70.375 59.17 70.4 59.18C70.5524 59.341 70.7387 59.4662 70.9453 59.5466C71.1519 59.6271 71.3738 59.6607 71.595 59.645C72.1167 59.6212 72.6277 59.4883 73.095 59.255C73.185 59.215 73.14 59.085 73.095 59.03Z" fill="#B16668"/>
<path d="M60.64 68.415C57.72 65.665 47.14 54.015 45.31 51.415C43.48 48.815 37.585 32.06 37.2 30.915C36.815 29.77 35.86 28.875 37.97 27.95L38.325 27.785C39.6404 27.0985 40.8251 26.1863 41.825 25.09C42.2987 24.5889 42.7396 24.0578 43.145 23.5C43.325 23.255 43.5 23 43.645 22.74C43.7999 22.4751 43.9192 22.191 44 21.895C44.1201 21.6529 44.2588 21.4205 44.415 21.2C44.4928 21.0539 44.5404 20.8936 44.555 20.7286C44.5696 20.5637 44.5509 20.3976 44.5 20.24C44.4365 20.1119 44.391 19.9756 44.365 19.835C44.365 19.495 44.67 19.185 44.575 18.835C44.5449 18.7441 44.4893 18.6637 44.4149 18.6034C44.3404 18.5431 44.2502 18.5055 44.155 18.495C43.42 18.345 42.655 18.805 42.085 19.175C41.055 19.82 40.22 20.365 39.46 20.85C38.605 20.595 36.705 22.56 34.81 23.35C31.975 24.56 29.64 24.285 28.93 26.775C28.74 27.445 29.175 28.92 30.21 34.335C31.245 39.75 33.025 50.235 34.545 55.3C35.38 58.095 35.765 59.27 39.17 63.46C43.46 68.74 55.855 83.02 58.12 86.21C60.385 89.4 63.86 87.21 64.45 82.82C65.04 78.43 64.5 72.035 60.64 68.415Z" fill="#FFA8A7"/>
<path d="M36.42 25C36.4512 24.8587 36.5183 24.7278 36.615 24.62C37.1047 24.0995 37.6592 23.6441 38.265 23.265C38.4716 23.1124 38.6671 22.9453 38.85 22.765C39.0218 22.6163 39.1761 22.4486 39.31 22.265C39.5132 21.9367 39.6603 21.5767 39.745 21.2C39.7902 21.5754 39.692 21.954 39.47 22.26C39.1726 22.6974 38.812 23.0884 38.4 23.42C38.005 23.775 37.565 24.07 37.16 24.42C36.8989 24.6394 36.6518 24.8749 36.42 25.125C36.4129 25.0836 36.4129 25.0414 36.42 25Z" fill="#F28F8F"/>
<path opacity="0.1" d="M84 86.27C83.705 89.875 74.695 94.07 67.645 88.12C68.525 90.72 72.145 93.12 76.18 92.985C79.57 92.88 84.055 90.47 84 86.27Z" fill="black"/>
</svg>
